solid Air quality SDS011 box
facet normal 0.0 1.0 1.8596235662471372e-15
  outer loop
    vertex 348.2999999999999 17.64999999999999 16.250000000000043
    vertex 208.49999999999994 17.649999999999995 14.750000000000046
    vertex 208.49999999999994 17.64999999999999 16.250000000000043
  endloop
endfacet
facet normal 0.0 1.0 1.8596235662471372e-15
  outer loop
    vertex 208.49999999999994 17.649999999999995 14.750000000000046
    vertex 348.2999999999999 17.64999999999999 16.250000000000043
    vertex 348.2999999999999 17.649999999999995 14.750000000000046
  endloop
endfacet
facet normal 1.0 0.0 0.0
  outer loop
    vertex 348.2999999999999 -7.850000000000011 14.749999999999995
    vertex 348.2999999999999 17.64999999999999 16.250000000000043
    vertex 348.2999999999999 -7.850000000000014 16.249999999999993
  endloop
endfacet
facet normal 1.0 0.0 0.0
  outer loop
    vertex 348.2999999999999 17.64999999999999 16.250000000000043
    vertex 348.2999999999999 -7.850000000000011 14.749999999999995
    vertex 348.2999999999999 17.649999999999995 14.750000000000046
  endloop
endfacet
facet normal 0.0 -1.0 -1.8596235662471372e-15
  outer loop
    vertex 348.2999999999999 -7.850000000000011 14.749999999999995
    vertex 208.49999999999994 -7.850000000000014 16.249999999999993
    vertex 208.49999999999994 -7.850000000000011 14.749999999999995
  endloop
endfacet
facet normal 0.0 -1.0 -1.8596235662471372e-15
  outer loop
    vertex 208.49999999999994 -7.850000000000014 16.249999999999993
    vertex 348.2999999999999 -7.850000000000011 14.749999999999995
    vertex 348.2999999999999 -7.850000000000014 16.249999999999993
  endloop
endfacet
facet normal -1.0 0.0 0.0
  outer loop
    vertex 208.49999999999994 17.649999999999995 14.750000000000046
    vertex 208.49999999999994 -7.850000000000014 16.249999999999993
    vertex 208.49999999999994 17.64999999999999 16.250000000000043
  endloop
endfacet
facet normal -1.0 0.0 0.0
  outer loop
    vertex 208.49999999999994 -7.850000000000014 16.249999999999993
    vertex 208.49999999999994 17.649999999999995 14.750000000000046
    vertex 208.49999999999994 -7.850000000000011 14.749999999999995
  endloop
endfacet
facet normal -1.0143126227925458e-32 -1.0 -1.869932780047228e-15
  outer loop
    vertex 241.49999999999994 8.649999999999993 14.750000000000027
    vertex 223.49999999999997 8.64999999999999 16.250000000000025
    vertex 223.49999999999997 8.649999999999993 14.750000000000023
  endloop
endfacet
facet normal -1.0143126227925458e-32 -1.0 -1.869932780047228e-15
  outer loop
    vertex 223.49999999999997 8.64999999999999 16.250000000000025
    vertex 241.49999999999994 8.649999999999993 14.750000000000027
    vertex 241.49999999999994 8.64999999999999 16.250000000000025
  endloop
endfacet
facet normal -1.0 2.6727536946261848e-31 -1.5106963299363733e-16
  outer loop
    vertex 241.49999999999994 8.64999999999999 16.250000000000025
    vertex 241.49999999999994 -2.350000000000007 14.750000000000007
    vertex 241.49999999999994 -2.35000000000001 16.250000000000007
  endloop
endfacet
facet normal -1.0 2.6727536946261848e-31 -1.5106963299363733e-16
  outer loop
    vertex 241.49999999999994 -2.350000000000007 14.750000000000007
    vertex 241.49999999999994 8.64999999999999 16.250000000000025
    vertex 241.49999999999994 8.649999999999993 14.750000000000027
  endloop
endfacet
facet normal 1.0 -2.9770474814639485e-31 1.5106963299363733e-16
  outer loop
    vertex 223.49999999999997 -2.350000000000007 14.750000000000004
    vertex 223.49999999999997 8.64999999999999 16.250000000000025
    vertex 223.49999999999997 -2.35000000000001 16.250000000000004
  endloop
endfacet
facet normal 1.0 -2.9770474814639485e-31 1.5106963299363733e-16
  outer loop
    vertex 223.49999999999997 8.64999999999999 16.250000000000025
    vertex 223.49999999999997 -2.350000000000007 14.750000000000004
    vertex 223.49999999999997 8.649999999999993 14.750000000000023
  endloop
endfacet
facet normal 2.0286252455850916e-32 1.0 1.869932780047228e-15
  outer loop
    vertex 241.49999999999994 -2.35000000000001 16.250000000000007
    vertex 223.49999999999997 -2.350000000000007 14.750000000000004
    vertex 223.49999999999997 -2.35000000000001 16.250000000000004
  endloop
endfacet
facet normal 2.0286252455850916e-32 1.0 1.869932780047228e-15
  outer loop
    vertex 223.49999999999997 -2.350000000000007 14.750000000000004
    vertex 241.49999999999994 -2.35000000000001 16.250000000000007
    vertex 241.49999999999994 -2.350000000000007 14.750000000000007
  endloop
endfacet
facet normal 0.7983037191083122 -0.6022550722557984 7.084561100048634e-15
  outer loop
    vertex 310.4005263906909 6.593225215472043 14.750000000000023
    vertex 311.6582873719191 8.260417930517066 16.250000000000025
    vertex 310.4005263906909 6.593225215472046 16.250000000000025
  endloop
endfacet
facet normal 0.7983037191083122 -0.6022550722557984 7.084561100048634e-15
  outer loop
    vertex 311.6582873719191 8.260417930517066 16.250000000000025
    vertex 310.4005263906909 6.593225215472043 14.750000000000023
    vertex 311.6582873719191 8.260417930517065 14.750000000000027
  endloop
endfacet
facet normal 0.6022550722557982 0.7983037191083123 1.9454409778708575e-15
  outer loop
    vertex 313.41797462683724 -4.310673451618426 16.25
    vertex 311.7507819117923 -3.0529124703902473 14.750000000000004
    vertex 311.7507819117923 -3.05291247039025 16.250000000000004
  endloop
endfacet
facet normal 0.6022550722557982 0.7983037191083123 1.9454409778708575e-15
  outer loop
    vertex 311.7507819117923 -3.0529124703902473 14.750000000000004
    vertex 313.41797462683724 -4.310673451618426 16.25
    vertex 313.41797462683724 -4.310673451618422 14.750000000000002
  endloop
endfacet
facet normal -0.9924788368112952 0.12241633257739212 9.496671663011114e-15
  outer loop
    vertex 325.3609324865948 2.7154035163670276 14.750000000000016
    vertex 325.1052758824849 0.6426917815195774 16.250000000000014
    vertex 325.36093248659483 2.7154035163670023 16.250000000000014
  endloop
endfacet
facet normal -0.9924788368112952 0.12241633257739212 9.496671663011114e-15
  outer loop
    vertex 325.1052758824849 0.6426917815195774 16.250000000000014
    vertex 325.3609324865948 2.7154035163670276 14.750000000000016
    vertex 325.1052758824849 0.6426917815196014 14.750000000000012
  endloop
endfacet
facet normal -0.13862732763186403 0.9903446188239969 2.4211355928027302e-15
  outer loop
    vertex 319.4948579519678 -5.0602206888706425 16.25
    vertex 317.4266033586764 -5.349732644285496 14.750000000000002
    vertex 317.4266033586764 -5.3497326442855 16.25
  endloop
endfacet
facet normal -0.13862732763186403 0.9903446188239969 2.4211355928027302e-15
  outer loop
    vertex 317.4266033586764 -5.349732644285496 14.750000000000002
    vertex 319.4948579519678 -5.0602206888706425 16.25
    vertex 319.4948579519678 -5.060220688870638 14.750000000000002
  endloop
endfacet
facet normal 0.0 -1.970645868709653e-15 1.0
  outer loop
    vertex 310.46592990705796 -1.4065074288134416 16.25000000000001
    vertex 241.49999999999994 -2.35000000000001 16.250000000000007
    vertex 311.7507819117923 -3.05291247039025 16.250000000000004
  endloop
endfacet
facet normal 0.0 -1.970645868709653e-15 1.0
  outer loop
    vertex 241.49999999999994 -2.35000000000001 16.250000000000007
    vertex 310.46592990705796 -1.4065074288134416 16.25000000000001
    vertex 241.49999999999994 8.64999999999999 16.250000000000025
  endloop
endfacet
facet normal 0.0 -1.970645868709653e-15 1.0
  outer loop
    vertex 241.49999999999994 8.64999999999999 16.250000000000025
    vertex 310.46592990705796 -1.4065074288134416 16.25000000000001
    vertex 309.6509791534387 0.5163418903415133 16.250000000000014
  endloop
endfacet
facet normal 0.0 -1.970645868709653e-15 1.0
  outer loop
    vertex 241.49999999999994 8.64999999999999 16.250000000000025
    vertex 309.6509791534387 0.5163418903415133 16.250000000000014
    vertex 309.3614671980239 2.5845964836329514 16.250000000000014
  endloop
endfacet
facet normal 0.0 -1.970645868709653e-15 1.0
  outer loop
    vertex 241.49999999999994 8.64999999999999 16.250000000000025
    vertex 309.3614671980239 2.5845964836329514 16.250000000000014
    vertex 309.6171238021338 4.657308218480379 16.25000000000002
  endloop
endfacet
facet normal 0.0 -1.970645868709653e-15 1.0
  outer loop
    vertex 241.49999999999994 8.64999999999999 16.250000000000025
    vertex 309.6171238021338 4.657308218480379 16.25000000000002
    vertex 310.4005263906909 6.593225215472046 16.250000000000025
  endloop
endfacet
facet normal 0.0 -1.970645868709653e-15 1.0
  outer loop
    vertex 241.49999999999994 8.64999999999999 16.250000000000025
    vertex 310.4005263906909 6.593225215472046 16.250000000000025
    vertex 311.6582873719191 8.260417930517066 16.250000000000025
  endloop
endfacet
facet normal 0.0 -1.970645868709653e-15 1.0
  outer loop
    vertex 241.49999999999994 8.64999999999999 16.250000000000025
    vertex 311.6582873719191 8.260417930517066 16.250000000000025
    vertex 313.3046924134959 9.545269935251362 16.25000000000003
  endloop
endfacet
facet normal 0.0 -1.970645868709653e-15 1.0
  outer loop
    vertex 241.49999999999994 8.64999999999999 16.250000000000025
    vertex 313.3046924134959 9.545269935251362 16.25000000000003
    vertex 223.49999999999997 8.64999999999999 16.250000000000025
  endloop
endfacet
facet normal 0.0 -1.970645868709653e-15 1.0
  outer loop
    vertex 348.2999999999999 -7.850000000000014 16.249999999999993
    vertex 317.4266033586764 -5.3497326442855 16.25
    vertex 208.49999999999994 -7.850000000000014 16.249999999999993
  endloop
endfacet
facet normal 0.0 -1.970645868709653e-15 1.0
  outer loop
    vertex 317.4266033586764 -5.3497326442855 16.25
    vertex 348.2999999999999 -7.850000000000014 16.249999999999993
    vertex 319.4948579519678 -5.0602206888706425 16.25
  endloop
endfacet
facet normal 0.0 -1.970645868709653e-15 1.0
  outer loop
    vertex 319.4948579519678 -5.0602206888706425 16.25
    vertex 348.2999999999999 -7.850000000000014 16.249999999999993
    vertex 321.41770727112277 -4.245269935251392 16.250000000000004
  endloop
endfacet
facet normal 0.0 -1.970645868709653e-15 1.0
  outer loop
    vertex 321.41770727112277 -4.245269935251392 16.250000000000004
    vertex 348.2999999999999 -7.850000000000014 16.249999999999993
    vertex 323.0641123126996 -2.960417930517102 16.250000000000004
  endloop
endfacet
facet normal 0.0 -1.970645868709653e-15 1.0
  outer loop
    vertex 323.0641123126996 -2.960417930517102 16.250000000000004
    vertex 348.2999999999999 -7.850000000000014 16.249999999999993
    vertex 348.2999999999999 17.64999999999999 16.250000000000043
  endloop
endfacet
facet normal 0.0 -1.970645868709653e-15 1.0
  outer loop
    vertex 323.0641123126996 -2.960417930517102 16.250000000000004
    vertex 348.2999999999999 17.64999999999999 16.250000000000043
    vertex 324.32187329392775 -1.2932252154720838 16.25000000000001
  endloop
endfacet
facet normal 0.0 -1.970645868709653e-15 1.0
  outer loop
    vertex 324.32187329392775 -1.2932252154720838 16.25000000000001
    vertex 348.2999999999999 17.64999999999999 16.250000000000043
    vertex 325.1052758824849 0.6426917815195774 16.250000000000014
  endloop
endfacet
facet normal 0.0 -1.970645868709653e-15 1.0
  outer loop
    vertex 325.1052758824849 0.6426917815195774 16.250000000000014
    vertex 348.2999999999999 17.64999999999999 16.250000000000043
    vertex 325.36093248659483 2.7154035163670023 16.250000000000014
  endloop
endfacet
facet normal 0.0 -1.970645868709653e-15 1.0
  outer loop
    vertex 325.36093248659483 2.7154035163670023 16.250000000000014
    vertex 348.2999999999999 17.64999999999999 16.250000000000043
    vertex 325.07142053117997 4.783658109658436 16.25000000000002
  endloop
endfacet
facet normal 0.0 -1.970645868709653e-15 1.0
  outer loop
    vertex 325.07142053117997 4.783658109658436 16.25000000000002
    vertex 348.2999999999999 17.64999999999999 16.250000000000043
    vertex 324.2564697775607 6.706507428813406 16.250000000000025
  endloop
endfacet
facet normal 0.0 -1.970645868709653e-15 1.0
  outer loop
    vertex 324.2564697775607 6.706507428813406 16.250000000000025
    vertex 348.2999999999999 17.64999999999999 16.250000000000043
    vertex 322.9716177728264 8.352912470390216 16.250000000000025
  endloop
endfacet
facet normal 0.0 -1.970645868709653e-15 1.0
  outer loop
    vertex 322.9716177728264 8.352912470390216 16.250000000000025
    vertex 348.2999999999999 17.64999999999999 16.250000000000043
    vertex 321.30442505778143 9.610673451618391 16.25000000000003
  endloop
endfacet
facet normal 0.0 -1.970645868709653e-15 1.0
  outer loop
    vertex 321.30442505778143 9.610673451618391 16.25000000000003
    vertex 348.2999999999999 17.64999999999999 16.250000000000043
    vertex 319.36850806078974 10.394076040175534 16.250000000000032
  endloop
endfacet
facet normal 0.0 -1.970645868709653e-15 1.0
  outer loop
    vertex 319.36850806078974 10.394076040175534 16.250000000000032
    vertex 348.2999999999999 17.64999999999999 16.250000000000043
    vertex 317.2957963259423 10.649732644285466 16.250000000000032
  endloop
endfacet
facet normal 0.0 -1.970645868709653e-15 1.0
  outer loop
    vertex 208.49999999999994 -7.850000000000014 16.249999999999993
    vertex 223.49999999999997 -2.35000000000001 16.250000000000004
    vertex 208.49999999999994 17.64999999999999 16.250000000000043
  endloop
endfacet
facet normal 0.0 -1.970645868709653e-15 1.0
  outer loop
    vertex 223.49999999999997 -2.35000000000001 16.250000000000004
    vertex 208.49999999999994 -7.850000000000014 16.249999999999993
    vertex 317.4266033586764 -5.3497326442855 16.25
  endloop
endfacet
facet normal 0.0 -1.970645868709653e-15 1.0
  outer loop
    vertex 223.49999999999997 -2.35000000000001 16.250000000000004
    vertex 317.4266033586764 -5.3497326442855 16.25
    vertex 315.35389162382893 -5.094076040175567 16.25
  endloop
endfacet
facet normal 0.0 -1.970645868709653e-15 1.0
  outer loop
    vertex 223.49999999999997 -2.35000000000001 16.250000000000004
    vertex 315.35389162382893 -5.094076040175567 16.25
    vertex 313.41797462683724 -4.310673451618426 16.25
  endloop
endfacet
facet normal 0.0 -1.970645868709653e-15 1.0
  outer loop
    vertex 223.49999999999997 -2.35000000000001 16.250000000000004
    vertex 313.41797462683724 -4.310673451618426 16.25
    vertex 311.7507819117923 -3.05291247039025 16.250000000000004
  endloop
endfacet
facet normal 0.0 -1.970645868709653e-15 1.0
  outer loop
    vertex 223.49999999999997 -2.35000000000001 16.250000000000004
    vertex 311.7507819117923 -3.05291247039025 16.250000000000004
    vertex 241.49999999999994 -2.35000000000001 16.250000000000007
  endloop
endfacet
facet normal 0.0 -1.970645868709653e-15 1.0
  outer loop
    vertex 208.49999999999994 17.64999999999999 16.250000000000043
    vertex 223.49999999999997 -2.35000000000001 16.250000000000004
    vertex 223.49999999999997 8.64999999999999 16.250000000000025
  endloop
endfacet
facet normal 0.0 -1.970645868709653e-15 1.0
  outer loop
    vertex 208.49999999999994 17.64999999999999 16.250000000000043
    vertex 223.49999999999997 8.64999999999999 16.250000000000025
    vertex 313.3046924134959 9.545269935251362 16.25000000000003
  endloop
endfacet
facet normal 0.0 -1.970645868709653e-15 1.0
  outer loop
    vertex 208.49999999999994 17.64999999999999 16.250000000000043
    vertex 313.3046924134959 9.545269935251362 16.25000000000003
    vertex 315.2275417326509 10.36022068887061 16.250000000000032
  endloop
endfacet
facet normal 0.0 -1.970645868709653e-15 1.0
  outer loop
    vertex 208.49999999999994 17.64999999999999 16.250000000000043
    vertex 315.2275417326509 10.36022068887061 16.250000000000032
    vertex 317.2957963259423 10.649732644285466 16.250000000000032
  endloop
endfacet
facet normal 0.0 -1.970645868709653e-15 1.0
  outer loop
    vertex 208.49999999999994 17.64999999999999 16.250000000000043
    vertex 317.2957963259423 10.649732644285466 16.250000000000032
    vertex 348.2999999999999 17.64999999999999 16.250000000000043
  endloop
endfacet
facet normal 0.9924788368112959 -0.12241633257738672 1.545535622698171e-16
  outer loop
    vertex 309.3614671980239 2.5845964836329496 14.750000000000016
    vertex 309.6171238021338 4.657308218480379 16.25000000000002
    vertex 309.3614671980239 2.5845964836329514 16.250000000000014
  endloop
endfacet
facet normal 0.9924788368112959 -0.12241633257738672 1.545535622698171e-16
  outer loop
    vertex 309.6171238021338 4.657308218480379 16.25000000000002
    vertex 309.3614671980239 2.5845964836329496 14.750000000000016
    vertex 309.6171238021338 4.6573082184803765 14.750000000000021
  endloop
endfacet
facet normal 0.9207200516857107 0.3902237645554952 2.352137322623644e-16
  outer loop
    vertex 310.46592990705796 -1.4065074288134403 14.750000000000007
    vertex 309.6509791534387 0.5163418903415133 16.250000000000014
    vertex 310.46592990705796 -1.4065074288134416 16.25000000000001
  endloop
endfacet
facet normal 0.9207200516857107 0.3902237645554952 2.352137322623644e-16
  outer loop
    vertex 309.6509791534387 0.5163418903415133 16.250000000000014
    vertex 310.46592990705796 -1.4065074288134403 14.750000000000007
    vertex 309.6509791534387 0.5163418903415133 14.750000000000012
  endloop
endfacet
facet normal -0.39022376455549873 0.9207200516857091 1.0540142856486787e-15
  outer loop
    vertex 321.41770727112277 -4.245269935251392 16.250000000000004
    vertex 319.4948579519678 -5.060220688870638 14.750000000000002
    vertex 319.4948579519678 -5.0602206888706425 16.25
  endloop
endfacet
facet normal -0.39022376455549873 0.9207200516857091 1.0540142856486787e-15
  outer loop
    vertex 319.4948579519678 -5.060220688870638 14.750000000000002
    vertex 321.41770727112277 -4.245269935251392 16.250000000000004
    vertex 321.41770727112277 -4.245269935251383 14.750000000000002
  endloop
endfacet
facet normal -0.9903446188239969 -0.13862732763186483 5.083934208276392e-15
  outer loop
    vertex 325.07142053117997 4.783658109658462 14.750000000000021
    vertex 325.36093248659483 2.7154035163670023 16.250000000000014
    vertex 325.07142053117997 4.783658109658436 16.25000000000002
  endloop
endfacet
facet normal -0.9903446188239969 -0.13862732763186483 5.083934208276392e-15
  outer loop
    vertex 325.36093248659483 2.7154035163670023 16.250000000000014
    vertex 325.07142053117997 4.783658109658462 14.750000000000021
    vertex 325.3609324865948 2.7154035163670276 14.750000000000016
  endloop
endfacet
facet normal 0.39022376455549856 -0.9207200516857091 -3.5461351265115827e-15
  outer loop
    vertex 315.2275417326509 10.360220688870616 14.750000000000032
    vertex 313.3046924134959 9.545269935251362 16.25000000000003
    vertex 313.3046924134959 9.545269935251369 14.75000000000003
  endloop
endfacet
facet normal 0.39022376455549856 -0.9207200516857091 -3.5461351265115827e-15
  outer loop
    vertex 313.3046924134959 9.545269935251362 16.25000000000003
    vertex 315.2275417326509 10.360220688870616 14.750000000000032
    vertex 315.2275417326509 10.36022068887061 16.250000000000032
  endloop
endfacet
facet normal 0.9903446188239976 0.1386273276318593 -5.434956680236476e-17
  outer loop
    vertex 309.6509791534387 0.5163418903415133 14.750000000000012
    vertex 309.3614671980239 2.5845964836329514 16.250000000000014
    vertex 309.6509791534387 0.5163418903415133 16.250000000000014
  endloop
endfacet
facet normal 0.9903446188239976 0.1386273276318593 -5.434956680236476e-17
  outer loop
    vertex 309.3614671980239 2.5845964836329514 16.250000000000014
    vertex 309.6509791534387 0.5163418903415133 14.750000000000012
    vertex 309.3614671980239 2.5845964836329496 14.750000000000016
  endloop
endfacet
facet normal 0.6152270967999407 -0.7883499345868663 -7.937994285387224e-16
  outer loop
    vertex 313.3046924134959 9.545269935251369 14.75000000000003
    vertex 311.6582873719191 8.260417930517066 16.250000000000025
    vertex 311.6582873719191 8.260417930517065 14.750000000000027
  endloop
endfacet
facet normal 0.6152270967999407 -0.7883499345868663 -7.937994285387224e-16
  outer loop
    vertex 311.6582873719191 8.260417930517066 16.250000000000025
    vertex 313.3046924134959 9.545269935251369 14.75000000000003
    vertex 313.3046924134959 9.545269935251362 16.25000000000003
  endloop
endfacet
facet normal -0.920720051685711 -0.390223764555494 -4.068718301468606e-15
  outer loop
    vertex 324.2564697775607 6.7065074288134126 14.750000000000023
    vertex 325.07142053117997 4.783658109658436 16.25000000000002
    vertex 324.2564697775607 6.706507428813406 16.250000000000025
  endloop
endfacet
facet normal -0.920720051685711 -0.390223764555494 -4.068718301468606e-15
  outer loop
    vertex 325.07142053117997 4.783658109658436 16.25000000000002
    vertex 324.2564697775607 6.7065074288134126 14.750000000000023
    vertex 325.07142053117997 4.783658109658462 14.750000000000021
  endloop
endfacet
facet normal -0.7883499345868624 -0.6152270967999459 -2.3790981766999304e-15
  outer loop
    vertex 322.9716177728264 8.352912470390221 14.750000000000027
    vertex 324.2564697775607 6.706507428813406 16.250000000000025
    vertex 322.9716177728264 8.352912470390216 16.250000000000025
  endloop
endfacet
facet normal -0.7883499345868624 -0.6152270967999459 -2.3790981766999304e-15
  outer loop
    vertex 324.2564697775607 6.706507428813406 16.250000000000025
    vertex 322.9716177728264 8.352912470390221 14.750000000000027
    vertex 324.2564697775607 6.7065074288134126 14.750000000000023
  endloop
endfacet
facet normal 0.7883499345868622 0.6152270967999461 9.255004480845353e-16
  outer loop
    vertex 311.7507819117923 -3.0529124703902473 14.750000000000004
    vertex 310.46592990705796 -1.4065074288134416 16.25000000000001
    vertex 311.7507819117923 -3.05291247039025 16.250000000000004
  endloop
endfacet
facet normal 0.7883499345868622 0.6152270967999461 9.255004480845353e-16
  outer loop
    vertex 310.46592990705796 -1.4065074288134416 16.25000000000001
    vertex 311.7507819117923 -3.0529124703902473 14.750000000000004
    vertex 310.46592990705796 -1.4065074288134403 14.750000000000007
  endloop
endfacet
facet normal -0.12241633257739472 -0.9924788368112948 -2.8768037249564957e-15
  outer loop
    vertex 319.36850806078974 10.394076040175536 14.750000000000032
    vertex 317.2957963259423 10.649732644285466 16.250000000000032
    vertex 317.2957963259423 10.64973264428547 14.750000000000032
  endloop
endfacet
facet normal -0.12241633257739472 -0.9924788368112948 -2.8768037249564957e-15
  outer loop
    vertex 317.2957963259423 10.649732644285466 16.250000000000032
    vertex 319.36850806078974 10.394076040175536 14.750000000000032
    vertex 319.36850806078974 10.394076040175534 16.250000000000032
  endloop
endfacet
facet normal -0.7983037191083148 0.6022550722557949 6.841180299953821e-15
  outer loop
    vertex 324.32187329392775 -1.2932252154720643 14.750000000000009
    vertex 323.0641123126996 -2.960417930517102 16.250000000000004
    vertex 324.32187329392775 -1.2932252154720838 16.25000000000001
  endloop
endfacet
facet normal -0.7983037191083148 0.6022550722557949 6.841180299953821e-15
  outer loop
    vertex 323.0641123126996 -2.960417930517102 16.250000000000004
    vertex 324.32187329392775 -1.2932252154720643 14.750000000000009
    vertex 323.0641123126996 -2.9604179305170883 14.750000000000004
  endloop
endfacet
facet normal -0.6152270967999414 0.788349934586866 1.3610102396758264e-15
  outer loop
    vertex 323.0641123126996 -2.960417930517102 16.250000000000004
    vertex 321.41770727112277 -4.245269935251383 14.750000000000002
    vertex 321.41770727112277 -4.245269935251392 16.250000000000004
  endloop
endfacet
facet normal -0.6152270967999414 0.788349934586866 1.3610102396758264e-15
  outer loop
    vertex 321.41770727112277 -4.245269935251383 14.750000000000002
    vertex 323.0641123126996 -2.960417930517102 16.250000000000004
    vertex 323.0641123126996 -2.9604179305170883 14.750000000000004
  endloop
endfacet
facet normal -0.6022550722557981 -0.7983037191083125 -2.3177080297053682e-15
  outer loop
    vertex 322.9716177728264 8.352912470390221 14.750000000000027
    vertex 321.30442505778143 9.610673451618391 16.25000000000003
    vertex 321.30442505778143 9.610673451618394 14.75000000000003
  endloop
endfacet
facet normal -0.6022550722557981 -0.7983037191083125 -2.3177080297053682e-15
  outer loop
    vertex 321.30442505778143 9.610673451618391 16.25000000000003
    vertex 322.9716177728264 8.352912470390221 14.750000000000027
    vertex 322.9716177728264 8.352912470390216 16.250000000000025
  endloop
endfacet
facet normal 0.3751175220240565 0.9269772622187297 1.8267439121791244e-15
  outer loop
    vertex 315.35389162382893 -5.094076040175567 16.25
    vertex 313.41797462683724 -4.310673451618422 14.750000000000002
    vertex 313.41797462683724 -4.310673451618426 16.25
  endloop
endfacet
facet normal 0.3751175220240565 0.9269772622187297 1.8267439121791244e-15
  outer loop
    vertex 313.41797462683724 -4.310673451618422 14.750000000000002
    vertex 315.35389162382893 -5.094076040175567 16.25
    vertex 315.35389162382893 -5.094076040175566 14.750000000000002
  endloop
endfacet
facet normal 0.9269772622187299 -0.37511752202405607 7.634145326876861e-15
  outer loop
    vertex 309.6171238021338 4.6573082184803765 14.750000000000021
    vertex 310.4005263906909 6.593225215472046 16.250000000000025
    vertex 309.6171238021338 4.657308218480379 16.25000000000002
  endloop
endfacet
facet normal 0.9269772622187299 -0.37511752202405607 7.634145326876861e-15
  outer loop
    vertex 310.4005263906909 6.593225215472046 16.250000000000025
    vertex 309.6171238021338 4.6573082184803765 14.750000000000021
    vertex 310.4005263906909 6.593225215472043 14.750000000000023
  endloop
endfacet
facet normal -0.9269772622187278 0.37511752202406123 5.473881345658523e-15
  outer loop
    vertex 325.1052758824849 0.6426917815196014 14.750000000000012
    vertex 324.32187329392775 -1.2932252154720838 16.25000000000001
    vertex 325.1052758824849 0.6426917815195774 16.250000000000014
  endloop
endfacet
facet normal -0.9269772622187278 0.37511752202406123 5.473881345658523e-15
  outer loop
    vertex 324.32187329392775 -1.2932252154720838 16.25000000000001
    vertex 325.1052758824849 0.6426917815196014 14.750000000000012
    vertex 324.32187329392775 -1.2932252154720643 14.750000000000009
  endloop
endfacet
facet normal 0.13862732763186092 -0.9903446188239974 -2.882955652919175e-15
  outer loop
    vertex 317.2957963259423 10.64973264428547 14.750000000000032
    vertex 315.2275417326509 10.36022068887061 16.250000000000032
    vertex 315.2275417326509 10.360220688870616 14.750000000000032
  endloop
endfacet
facet normal 0.13862732763186092 -0.9903446188239974 -2.882955652919175e-15
  outer loop
    vertex 315.2275417326509 10.36022068887061 16.250000000000032
    vertex 317.2957963259423 10.64973264428547 14.750000000000032
    vertex 317.2957963259423 10.649732644285466 16.250000000000032
  endloop
endfacet
facet normal 0.12241633257739372 0.992478836811295 1.4930090253842541e-15
  outer loop
    vertex 317.4266033586764 -5.3497326442855 16.25
    vertex 315.35389162382893 -5.094076040175566 14.750000000000002
    vertex 315.35389162382893 -5.094076040175567 16.25
  endloop
endfacet
facet normal 0.12241633257739372 0.992478836811295 1.4930090253842541e-15
  outer loop
    vertex 315.35389162382893 -5.094076040175566 14.750000000000002
    vertex 317.4266033586764 -5.3497326442855 16.25
    vertex 317.4266033586764 -5.349732644285496 14.750000000000002
  endloop
endfacet
facet normal -0.3751175220240584 -0.926977262218729 -4.648879693571938e-15
  outer loop
    vertex 321.30442505778143 9.610673451618394 14.75000000000003
    vertex 319.36850806078974 10.394076040175534 16.250000000000032
    vertex 319.36850806078974 10.394076040175536 14.750000000000032
  endloop
endfacet
facet normal -0.3751175220240584 -0.926977262218729 -4.648879693571938e-15
  outer loop
    vertex 319.36850806078974 10.394076040175534 16.250000000000032
    vertex 321.30442505778143 9.610673451618394 14.75000000000003
    vertex 321.30442505778143 9.610673451618391 16.25000000000003
  endloop
endfacet
facet normal 0.0 1.970645868709653e-15 -1.0
  outer loop
    vertex 208.49999999999994 -7.850000000000011 14.749999999999995
    vertex 223.49999999999997 -2.350000000000007 14.750000000000004
    vertex 348.2999999999999 -7.850000000000011 14.749999999999995
  endloop
endfacet
facet normal 0.0 1.970645868709653e-15 -1.0
  outer loop
    vertex 223.49999999999997 -2.350000000000007 14.750000000000004
    vertex 208.49999999999994 -7.850000000000011 14.749999999999995
    vertex 208.49999999999994 17.649999999999995 14.750000000000046
  endloop
endfacet
facet normal 0.0 1.970645868709653e-15 -1.0
  outer loop
    vertex 348.2999999999999 -7.850000000000011 14.749999999999995
    vertex 223.49999999999997 -2.350000000000007 14.750000000000004
    vertex 317.4266033586764 -5.349732644285496 14.750000000000002
  endloop
endfacet
facet normal 0.0 1.970645868709653e-15 -1.0
  outer loop
    vertex 317.4266033586764 -5.349732644285496 14.750000000000002
    vertex 223.49999999999997 -2.350000000000007 14.750000000000004
    vertex 315.35389162382893 -5.094076040175566 14.750000000000002
  endloop
endfacet
facet normal 0.0 1.970645868709653e-15 -1.0
  outer loop
    vertex 315.35389162382893 -5.094076040175566 14.750000000000002
    vertex 223.49999999999997 -2.350000000000007 14.750000000000004
    vertex 313.41797462683724 -4.310673451618422 14.750000000000002
  endloop
endfacet
facet normal 0.0 1.970645868709653e-15 -1.0
  outer loop
    vertex 313.41797462683724 -4.310673451618422 14.750000000000002
    vertex 223.49999999999997 -2.350000000000007 14.750000000000004
    vertex 311.7507819117923 -3.0529124703902473 14.750000000000004
  endloop
endfacet
facet normal 0.0 1.970645868709653e-15 -1.0
  outer loop
    vertex 223.49999999999997 -2.350000000000007 14.750000000000004
    vertex 208.49999999999994 17.649999999999995 14.750000000000046
    vertex 223.49999999999997 8.649999999999993 14.750000000000023
  endloop
endfacet
facet normal 0.0 1.970645868709653e-15 -1.0
  outer loop
    vertex 223.49999999999997 8.649999999999993 14.750000000000023
    vertex 208.49999999999994 17.649999999999995 14.750000000000046
    vertex 241.49999999999994 8.649999999999993 14.750000000000027
  endloop
endfacet
facet normal 0.0 1.970645868709653e-15 -1.0
  outer loop
    vertex 241.49999999999994 8.649999999999993 14.750000000000027
    vertex 208.49999999999994 17.649999999999995 14.750000000000046
    vertex 313.3046924134959 9.545269935251369 14.75000000000003
  endloop
endfacet
facet normal 0.0 1.970645868709653e-15 -1.0
  outer loop
    vertex 313.3046924134959 9.545269935251369 14.75000000000003
    vertex 208.49999999999994 17.649999999999995 14.750000000000046
    vertex 315.2275417326509 10.360220688870616 14.750000000000032
  endloop
endfacet
facet normal 0.0 1.970645868709653e-15 -1.0
  outer loop
    vertex 315.2275417326509 10.360220688870616 14.750000000000032
    vertex 208.49999999999994 17.649999999999995 14.750000000000046
    vertex 317.2957963259423 10.64973264428547 14.750000000000032
  endloop
endfacet
facet normal 0.0 1.970645868709653e-15 -1.0
  outer loop
    vertex 348.2999999999999 -7.850000000000011 14.749999999999995
    vertex 323.0641123126996 -2.9604179305170883 14.750000000000004
    vertex 348.2999999999999 17.649999999999995 14.750000000000046
  endloop
endfacet
facet normal 0.0 1.970645868709653e-15 -1.0
  outer loop
    vertex 323.0641123126996 -2.9604179305170883 14.750000000000004
    vertex 348.2999999999999 -7.850000000000011 14.749999999999995
    vertex 321.41770727112277 -4.245269935251383 14.750000000000002
  endloop
endfacet
facet normal 0.0 1.970645868709653e-15 -1.0
  outer loop
    vertex 321.41770727112277 -4.245269935251383 14.750000000000002
    vertex 348.2999999999999 -7.850000000000011 14.749999999999995
    vertex 319.4948579519678 -5.060220688870638 14.750000000000002
  endloop
endfacet
facet normal 0.0 1.970645868709653e-15 -1.0
  outer loop
    vertex 319.4948579519678 -5.060220688870638 14.750000000000002
    vertex 348.2999999999999 -7.850000000000011 14.749999999999995
    vertex 317.4266033586764 -5.349732644285496 14.750000000000002
  endloop
endfacet
facet normal 0.0 1.970645868709653e-15 -1.0
  outer loop
    vertex 348.2999999999999 17.649999999999995 14.750000000000046
    vertex 323.0641123126996 -2.9604179305170883 14.750000000000004
    vertex 324.32187329392775 -1.2932252154720643 14.750000000000009
  endloop
endfacet
facet normal 0.0 1.970645868709653e-15 -1.0
  outer loop
    vertex 348.2999999999999 17.649999999999995 14.750000000000046
    vertex 324.32187329392775 -1.2932252154720643 14.750000000000009
    vertex 325.1052758824849 0.6426917815196014 14.750000000000012
  endloop
endfacet
facet normal 0.0 1.970645868709653e-15 -1.0
  outer loop
    vertex 348.2999999999999 17.649999999999995 14.750000000000046
    vertex 325.1052758824849 0.6426917815196014 14.750000000000012
    vertex 325.3609324865948 2.7154035163670276 14.750000000000016
  endloop
endfacet
facet normal 0.0 1.970645868709653e-15 -1.0
  outer loop
    vertex 348.2999999999999 17.649999999999995 14.750000000000046
    vertex 325.3609324865948 2.7154035163670276 14.750000000000016
    vertex 325.07142053117997 4.783658109658462 14.750000000000021
  endloop
endfacet
facet normal 0.0 1.970645868709653e-15 -1.0
  outer loop
    vertex 348.2999999999999 17.649999999999995 14.750000000000046
    vertex 325.07142053117997 4.783658109658462 14.750000000000021
    vertex 324.2564697775607 6.7065074288134126 14.750000000000023
  endloop
endfacet
facet normal 0.0 1.970645868709653e-15 -1.0
  outer loop
    vertex 348.2999999999999 17.649999999999995 14.750000000000046
    vertex 324.2564697775607 6.7065074288134126 14.750000000000023
    vertex 322.9716177728264 8.352912470390221 14.750000000000027
  endloop
endfacet
facet normal 0.0 1.970645868709653e-15 -1.0
  outer loop
    vertex 348.2999999999999 17.649999999999995 14.750000000000046
    vertex 322.9716177728264 8.352912470390221 14.750000000000027
    vertex 321.30442505778143 9.610673451618394 14.75000000000003
  endloop
endfacet
facet normal 0.0 1.970645868709653e-15 -1.0
  outer loop
    vertex 348.2999999999999 17.649999999999995 14.750000000000046
    vertex 321.30442505778143 9.610673451618394 14.75000000000003
    vertex 319.36850806078974 10.394076040175536 14.750000000000032
  endloop
endfacet
facet normal 0.0 1.970645868709653e-15 -1.0
  outer loop
    vertex 348.2999999999999 17.649999999999995 14.750000000000046
    vertex 319.36850806078974 10.394076040175536 14.750000000000032
    vertex 317.2957963259423 10.64973264428547 14.750000000000032
  endloop
endfacet
facet normal 0.0 1.970645868709653e-15 -1.0
  outer loop
    vertex 348.2999999999999 17.649999999999995 14.750000000000046
    vertex 317.2957963259423 10.64973264428547 14.750000000000032
    vertex 208.49999999999994 17.649999999999995 14.750000000000046
  endloop
endfacet
facet normal 0.0 1.970645868709653e-15 -1.0
  outer loop
    vertex 311.7507819117923 -3.0529124703902473 14.750000000000004
    vertex 241.49999999999994 -2.350000000000007 14.750000000000007
    vertex 310.46592990705796 -1.4065074288134403 14.750000000000007
  endloop
endfacet
facet normal 0.0 1.970645868709653e-15 -1.0
  outer loop
    vertex 241.49999999999994 -2.350000000000007 14.750000000000007
    vertex 311.7507819117923 -3.0529124703902473 14.750000000000004
    vertex 223.49999999999997 -2.350000000000007 14.750000000000004
  endloop
endfacet
facet normal 0.0 1.970645868709653e-15 -1.0
  outer loop
    vertex 310.46592990705796 -1.4065074288134403 14.750000000000007
    vertex 241.49999999999994 -2.350000000000007 14.750000000000007
    vertex 241.49999999999994 8.649999999999993 14.750000000000027
  endloop
endfacet
facet normal 0.0 1.970645868709653e-15 -1.0
  outer loop
    vertex 310.46592990705796 -1.4065074288134403 14.750000000000007
    vertex 241.49999999999994 8.649999999999993 14.750000000000027
    vertex 309.6509791534387 0.5163418903415133 14.750000000000012
  endloop
endfacet
facet normal 0.0 1.970645868709653e-15 -1.0
  outer loop
    vertex 309.6509791534387 0.5163418903415133 14.750000000000012
    vertex 241.49999999999994 8.649999999999993 14.750000000000027
    vertex 309.3614671980239 2.5845964836329496 14.750000000000016
  endloop
endfacet
facet normal 0.0 1.970645868709653e-15 -1.0
  outer loop
    vertex 309.3614671980239 2.5845964836329496 14.750000000000016
    vertex 241.49999999999994 8.649999999999993 14.750000000000027
    vertex 309.6171238021338 4.6573082184803765 14.750000000000021
  endloop
endfacet
facet normal 0.0 1.970645868709653e-15 -1.0
  outer loop
    vertex 309.6171238021338 4.6573082184803765 14.750000000000021
    vertex 241.49999999999994 8.649999999999993 14.750000000000027
    vertex 310.4005263906909 6.593225215472043 14.750000000000023
  endloop
endfacet
facet normal 0.0 1.970645868709653e-15 -1.0
  outer loop
    vertex 310.4005263906909 6.593225215472043 14.750000000000023
    vertex 241.49999999999994 8.649999999999993 14.750000000000027
    vertex 311.6582873719191 8.260417930517065 14.750000000000027
  endloop
endfacet
facet normal 0.0 1.970645868709653e-15 -1.0
  outer loop
    vertex 311.6582873719191 8.260417930517065 14.750000000000027
    vertex 241.49999999999994 8.649999999999993 14.750000000000027
    vertex 313.3046924134959 9.545269935251369 14.75000000000003
  endloop
endfacet
endsolid Air quality SDS011 box
