solid Air quality SDS011 box 01
facet normal 0.0 -1.0 0.0
  outer loop
    vertex 77.69999999999997 86.79999999999995 26.59999999999999
    vertex 75.69999999999997 86.79999999999997 26.499999999999996
    vertex 77.69999999999997 86.79999999999997 26.499999999999996
  endloop
endfacet
facet normal 0.0 -1.0 0.0
  outer loop
    vertex 148.29999999999998 86.79999999999998 1.999999999999992
    vertex 104.09999999999997 86.79999999999998 16.499999999999986
    vertex 8.500000000000004 86.79999999999998 1.999999999999992
  endloop
endfacet
facet normal 0.0 -1.0 0.0
  outer loop
    vertex 104.09999999999997 86.79999999999998 16.499999999999986
    vertex 148.29999999999998 86.79999999999998 1.999999999999992
    vertex 148.29999999999998 86.79999999999998 27.499999999999996
  endloop
endfacet
facet normal 0.0 -1.0 0.0
  outer loop
    vertex 104.09999999999997 86.79999999999998 16.499999999999986
    vertex 148.29999999999998 86.79999999999998 27.499999999999996
    vertex 104.09999999999997 86.79999999999995 26.499999999999996
  endloop
endfacet
facet normal 0.0 -1.0 0.0
  outer loop
    vertex 104.09999999999997 86.79999999999995 26.499999999999996
    vertex 148.29999999999998 86.79999999999998 27.499999999999996
    vertex 102.09999999999997 86.79999999999998 26.499999999999996
  endloop
endfacet
facet normal 0.0 -1.0 0.0
  outer loop
    vertex 102.09999999999997 86.79999999999998 26.499999999999996
    vertex 148.29999999999998 86.79999999999998 27.499999999999996
    vertex 102.09999999999997 86.79999999999995 26.59999999999999
  endloop
endfacet
facet normal 0.0 -1.0 0.0
  outer loop
    vertex 102.09999999999997 86.79999999999995 26.59999999999999
    vertex 148.29999999999998 86.79999999999998 27.499999999999996
    vertex 77.69999999999997 86.79999999999995 26.59999999999999
  endloop
endfacet
facet normal 0.0 -1.0 0.0
  outer loop
    vertex 8.500000000000004 86.79999999999998 1.999999999999992
    vertex 75.69999999999997 86.79999999999998 16.499999999999986
    vertex 8.500000000000004 86.79999999999998 27.499999999999996
  endloop
endfacet
facet normal 0.0 -1.0 0.0
  outer loop
    vertex 75.69999999999997 86.79999999999998 16.499999999999986
    vertex 8.500000000000004 86.79999999999998 1.999999999999992
    vertex 104.09999999999997 86.79999999999998 16.499999999999986
  endloop
endfacet
facet normal 0.0 -1.0 0.0
  outer loop
    vertex 8.500000000000004 86.79999999999998 27.499999999999996
    vertex 75.69999999999997 86.79999999999998 16.499999999999986
    vertex 75.69999999999997 86.79999999999997 26.499999999999996
  endloop
endfacet
facet normal 0.0 -1.0 0.0
  outer loop
    vertex 8.500000000000004 86.79999999999998 27.499999999999996
    vertex 75.69999999999997 86.79999999999997 26.499999999999996
    vertex 77.69999999999997 86.79999999999995 26.59999999999999
  endloop
endfacet
facet normal 0.0 -1.0 0.0
  outer loop
    vertex 8.500000000000004 86.79999999999998 27.499999999999996
    vertex 77.69999999999997 86.79999999999995 26.59999999999999
    vertex 148.29999999999998 86.79999999999998 27.499999999999996
  endloop
endfacet
facet normal 0.0 1.1102230246251563e-16 1.0
  outer loop
    vertex 148.29999999999998 86.79999999999998 27.499999999999996
    vertex 8.500000000000004 88.29999999999998 27.499999999999996
    vertex 8.500000000000004 86.79999999999998 27.499999999999996
  endloop
endfacet
facet normal 0.0 1.1102230246251563e-16 1.0
  outer loop
    vertex 8.500000000000004 88.29999999999998 27.499999999999996
    vertex 148.29999999999998 86.79999999999998 27.499999999999996
    vertex 148.29999999999998 88.29999999999998 27.499999999999996
  endloop
endfacet
facet normal 0.0 -1.1102230246251563e-16 -1.0
  outer loop
    vertex 148.29999999999998 88.29999999999998 1.999999999999992
    vertex 8.500000000000004 86.79999999999998 1.999999999999992
    vertex 8.500000000000004 88.29999999999998 1.999999999999992
  endloop
endfacet
facet normal 0.0 -1.1102230246251563e-16 -1.0
  outer loop
    vertex 8.500000000000004 86.79999999999998 1.999999999999992
    vertex 148.29999999999998 88.29999999999998 1.999999999999992
    vertex 148.29999999999998 86.79999999999998 1.999999999999992
  endloop
endfacet
facet normal 0.0 1.0 -1.1102230246251563e-16
  outer loop
    vertex 8.500000000000004 88.29999999999998 27.499999999999996
    vertex 148.29999999999998 88.29999999999998 1.999999999999992
    vertex 8.500000000000004 88.29999999999998 1.999999999999992
  endloop
endfacet
facet normal 0.0 1.0 -1.1102230246251563e-16
  outer loop
    vertex 148.29999999999998 88.29999999999998 1.999999999999992
    vertex 8.500000000000004 88.29999999999998 27.499999999999996
    vertex 77.69999999999997 88.29999999999998 18.499999999999993
  endloop
endfacet
facet normal 0.0 1.0 -1.1102230246251563e-16
  outer loop
    vertex 77.69999999999997 88.29999999999998 18.499999999999993
    vertex 8.500000000000004 88.29999999999998 27.499999999999996
    vertex 77.69999999999997 88.29999999999995 26.599999999999998
  endloop
endfacet
facet normal 0.0 1.0 -1.1102230246251563e-16
  outer loop
    vertex 77.69999999999997 88.29999999999995 26.599999999999998
    vertex 8.500000000000004 88.29999999999998 27.499999999999996
    vertex 102.09999999999997 88.29999999999995 26.599999999999998
  endloop
endfacet
facet normal 0.0 1.0 -1.1102230246251563e-16
  outer loop
    vertex 148.29999999999998 88.29999999999998 1.999999999999992
    vertex 102.09999999999997 88.29999999999998 18.499999999999993
    vertex 148.29999999999998 88.29999999999998 27.499999999999996
  endloop
endfacet
facet normal 0.0 1.0 -1.1102230246251563e-16
  outer loop
    vertex 102.09999999999997 88.29999999999998 18.499999999999993
    vertex 148.29999999999998 88.29999999999998 1.999999999999992
    vertex 77.69999999999997 88.29999999999998 18.499999999999993
  endloop
endfacet
facet normal 0.0 1.0 -1.1102230246251563e-16
  outer loop
    vertex 148.29999999999998 88.29999999999998 27.499999999999996
    vertex 102.09999999999997 88.29999999999998 18.499999999999993
    vertex 102.09999999999997 88.29999999999995 26.599999999999998
  endloop
endfacet
facet normal 0.0 1.0 -1.1102230246251563e-16
  outer loop
    vertex 148.29999999999998 88.29999999999998 27.499999999999996
    vertex 102.09999999999997 88.29999999999995 26.599999999999998
    vertex 8.500000000000004 88.29999999999998 27.499999999999996
  endloop
endfacet
facet normal -1.0 0.0 0.0
  outer loop
    vertex 8.500000000000004 88.29999999999998 27.499999999999996
    vertex 8.500000000000004 86.79999999999998 1.999999999999992
    vertex 8.500000000000004 86.79999999999998 27.499999999999996
  endloop
endfacet
facet normal -1.0 0.0 0.0
  outer loop
    vertex 8.500000000000004 86.79999999999998 1.999999999999992
    vertex 8.500000000000004 88.29999999999998 27.499999999999996
    vertex 8.500000000000004 88.29999999999998 1.999999999999992
  endloop
endfacet
facet normal 1.0 0.0 0.0
  outer loop
    vertex 148.29999999999998 88.29999999999998 1.999999999999992
    vertex 148.29999999999998 86.79999999999998 27.499999999999996
    vertex 148.29999999999998 86.79999999999998 1.999999999999992
  endloop
endfacet
facet normal 1.0 0.0 0.0
  outer loop
    vertex 148.29999999999998 86.79999999999998 27.499999999999996
    vertex 148.29999999999998 88.29999999999998 1.999999999999992
    vertex 148.29999999999998 88.29999999999998 27.499999999999996
  endloop
endfacet
facet normal -1.0 0.0 0.0
  outer loop
    vertex 102.09999999999997 88.29999999999995 26.599999999999998
    vertex 102.09999999999997 86.79999999999998 26.499999999999996
    vertex 102.09999999999997 86.79999999999995 26.59999999999999
  endloop
endfacet
facet normal -1.0 0.0 0.0
  outer loop
    vertex 102.09999999999997 71.99999999999999 26.499999999999964
    vertex 102.09999999999997 73.79999999999998 18.799999999999955
    vertex 102.09999999999997 71.99999999999999 18.799999999999955
  endloop
endfacet
facet normal -1.0 0.0 0.0
  outer loop
    vertex 102.09999999999997 73.79999999999998 18.799999999999955
    vertex 102.09999999999997 71.99999999999999 26.499999999999964
    vertex 102.09999999999997 86.79999999999998 26.499999999999996
  endloop
endfacet
facet normal -1.0 0.0 0.0
  outer loop
    vertex 102.09999999999997 73.79999999999998 18.799999999999955
    vertex 102.09999999999997 86.79999999999998 26.499999999999996
    vertex 102.09999999999997 73.79999999999998 18.49999999999996
  endloop
endfacet
facet normal -1.0 0.0 0.0
  outer loop
    vertex 102.09999999999997 73.79999999999998 18.49999999999996
    vertex 102.09999999999997 86.79999999999998 26.499999999999996
    vertex 102.09999999999997 88.29999999999998 18.499999999999993
  endloop
endfacet
facet normal -1.0 0.0 0.0
  outer loop
    vertex 102.09999999999997 88.29999999999998 18.499999999999993
    vertex 102.09999999999997 86.79999999999998 26.499999999999996
    vertex 102.09999999999997 88.29999999999995 26.599999999999998
  endloop
endfacet
facet normal 3.9794585436381745e-32 -2.3337653648672257e-15 1.0
  outer loop
    vertex 77.69999999999999 73.79999999999998 18.49999999999996
    vertex 102.09999999999997 88.29999999999998 18.499999999999993
    vertex 77.69999999999997 88.29999999999998 18.499999999999993
  endloop
endfacet
facet normal 3.9794585436381745e-32 -2.3337653648672257e-15 1.0
  outer loop
    vertex 102.09999999999997 88.29999999999998 18.499999999999993
    vertex 77.69999999999999 73.79999999999998 18.49999999999996
    vertex 102.09999999999997 73.79999999999998 18.49999999999996
  endloop
endfacet
facet normal 1.0 1.360160142684433e-16 3.738052546565196e-16
  outer loop
    vertex 77.69999999999997 71.99999999999999 18.499999999999954
    vertex 77.69999999999997 86.79999999999997 26.499999999999996
    vertex 77.69999999999997 71.99999999999997 26.499999999999964
  endloop
endfacet
facet normal 1.0 1.360160142684433e-16 3.738052546565196e-16
  outer loop
    vertex 77.69999999999997 86.79999999999997 26.499999999999996
    vertex 77.69999999999997 71.99999999999999 18.499999999999954
    vertex 77.69999999999999 73.79999999999998 18.49999999999996
  endloop
endfacet
facet normal 1.0 1.360160142684433e-16 3.738052546565196e-16
  outer loop
    vertex 77.69999999999997 86.79999999999997 26.499999999999996
    vertex 77.69999999999999 73.79999999999998 18.49999999999996
    vertex 77.69999999999997 88.29999999999998 18.499999999999993
  endloop
endfacet
facet normal 1.0 1.360160142684433e-16 3.738052546565196e-16
  outer loop
    vertex 77.69999999999997 86.79999999999997 26.499999999999996
    vertex 77.69999999999997 88.29999999999998 18.499999999999993
    vertex 77.69999999999997 88.29999999999995 26.599999999999998
  endloop
endfacet
facet normal 1.0 1.360160142684433e-16 3.738052546565196e-16
  outer loop
    vertex 77.69999999999997 88.29999999999995 26.599999999999998
    vertex 77.69999999999997 86.79999999999995 26.59999999999999
    vertex 77.69999999999997 86.79999999999997 26.499999999999996
  endloop
endfacet
facet normal 0.0 4.229949723821847e-15 -1.0
  outer loop
    vertex 102.09999999999997 88.29999999999995 26.599999999999998
    vertex 77.69999999999997 86.79999999999995 26.59999999999999
    vertex 77.69999999999997 88.29999999999995 26.599999999999998
  endloop
endfacet
facet normal 0.0 4.229949723821847e-15 -1.0
  outer loop
    vertex 77.69999999999997 86.79999999999995 26.59999999999999
    vertex 102.09999999999997 88.29999999999995 26.599999999999998
    vertex 102.09999999999997 86.79999999999995 26.59999999999999
  endloop
endfacet
facet normal 3.9450421572737674e-30 -1.0 -2.819966482547893e-15
  outer loop
    vertex 77.69999999999997 71.99999999999999 18.499999999999954
    vertex 75.69999999999997 71.99999999999997 26.499999999999964
    vertex 75.69999999999997 71.99999999999999 18.49999999999995
  endloop
endfacet
facet normal 3.9450421572737674e-30 -1.0 -2.819966482547893e-15
  outer loop
    vertex 75.69999999999997 71.99999999999997 26.499999999999964
    vertex 77.69999999999997 71.99999999999999 18.499999999999954
    vertex 77.69999999999997 71.99999999999997 26.499999999999964
  endloop
endfacet
facet normal 0.0 -2.1404564867532208e-15 1.0
  outer loop
    vertex 77.69999999999997 71.99999999999997 26.499999999999964
    vertex 75.69999999999997 86.79999999999997 26.499999999999996
    vertex 75.69999999999997 71.99999999999997 26.499999999999964
  endloop
endfacet
facet normal 0.0 -2.1404564867532208e-15 1.0
  outer loop
    vertex 75.69999999999997 86.79999999999997 26.499999999999996
    vertex 77.69999999999997 71.99999999999997 26.499999999999964
    vertex 77.69999999999997 86.79999999999997 26.499999999999996
  endloop
endfacet
facet normal -1.0 -9.700294024507432e-17 -3.096546948326761e-16
  outer loop
    vertex 75.69999999999997 86.79999999999997 26.499999999999996
    vertex 75.69999999999997 71.99999999999999 18.49999999999995
    vertex 75.69999999999997 71.99999999999997 26.499999999999964
  endloop
endfacet
facet normal -1.0 -9.700294024507432e-17 -3.096546948326761e-16
  outer loop
    vertex 75.69999999999997 71.99999999999999 18.49999999999995
    vertex 75.69999999999997 86.79999999999997 26.499999999999996
    vertex 75.69999999999999 73.79999999999998 18.499999999999954
  endloop
endfacet
facet normal -1.0 -9.700294024507432e-17 -3.096546948326761e-16
  outer loop
    vertex 75.69999999999999 73.79999999999998 18.499999999999954
    vertex 75.69999999999997 86.79999999999997 26.499999999999996
    vertex 75.69999999999999 73.79999999999998 16.499999999999954
  endloop
endfacet
facet normal -1.0 -9.700294024507432e-17 -3.096546948326761e-16
  outer loop
    vertex 75.69999999999999 73.79999999999998 16.499999999999954
    vertex 75.69999999999997 86.79999999999997 26.499999999999996
    vertex 75.69999999999997 86.79999999999998 16.499999999999986
  endloop
endfacet
facet normal 9.929459445591188e-17 2.1692049865753056e-15 -1.0
  outer loop
    vertex 104.09999999999997 86.79999999999998 16.499999999999986
    vertex 75.69999999999999 73.79999999999998 16.499999999999954
    vertex 75.69999999999997 86.79999999999998 16.499999999999986
  endloop
endfacet
facet normal 9.929459445591188e-17 2.1692049865753056e-15 -1.0
  outer loop
    vertex 75.69999999999999 73.79999999999998 16.499999999999954
    vertex 104.09999999999997 86.79999999999998 16.499999999999986
    vertex 104.09999999999997 73.79999999999998 16.499999999999957
  endloop
endfacet
facet normal 1.0 0.0 0.0
  outer loop
    vertex 104.09999999999997 86.79999999999998 16.499999999999986
    vertex 104.09999999999997 73.79999999999998 18.799999999999955
    vertex 104.09999999999997 73.79999999999998 16.499999999999957
  endloop
endfacet
facet normal 1.0 0.0 0.0
  outer loop
    vertex 104.09999999999997 73.79999999999998 18.799999999999955
    vertex 104.09999999999997 86.79999999999998 16.499999999999986
    vertex 104.09999999999997 86.79999999999995 26.499999999999996
  endloop
endfacet
facet normal 1.0 0.0 0.0
  outer loop
    vertex 104.09999999999997 71.99999999999999 18.799999999999955
    vertex 104.09999999999997 86.79999999999995 26.499999999999996
    vertex 104.09999999999997 71.99999999999994 26.499999999999964
  endloop
endfacet
facet normal 1.0 0.0 0.0
  outer loop
    vertex 104.09999999999997 86.79999999999995 26.499999999999996
    vertex 104.09999999999997 71.99999999999999 18.799999999999955
    vertex 104.09999999999997 73.79999999999998 18.799999999999955
  endloop
endfacet
facet normal -3.6216093299977924e-29 -2.1404564867532208e-15 1.0
  outer loop
    vertex 104.09999999999997 71.99999999999994 26.499999999999964
    vertex 102.09999999999997 86.79999999999998 26.499999999999996
    vertex 102.09999999999997 71.99999999999999 26.499999999999964
  endloop
endfacet
facet normal -3.6216093299977924e-29 -2.1404564867532208e-15 1.0
  outer loop
    vertex 102.09999999999997 86.79999999999998 26.499999999999996
    vertex 104.09999999999997 71.99999999999994 26.499999999999964
    vertex 104.09999999999997 86.79999999999995 26.499999999999996
  endloop
endfacet
facet normal 0.0 -1.0 0.0
  outer loop
    vertex 104.09999999999997 73.79999999999998 16.499999999999957
    vertex 75.69999999999999 73.79999999999998 18.499999999999954
    vertex 75.69999999999999 73.79999999999998 16.499999999999954
  endloop
endfacet
facet normal 0.0 -1.0 0.0
  outer loop
    vertex 75.69999999999999 73.79999999999998 18.499999999999954
    vertex 104.09999999999997 73.79999999999998 16.499999999999957
    vertex 102.09999999999997 73.79999999999998 18.49999999999996
  endloop
endfacet
facet normal 0.0 -1.0 0.0
  outer loop
    vertex 102.09999999999997 73.79999999999998 18.49999999999996
    vertex 104.09999999999997 73.79999999999998 16.499999999999957
    vertex 104.09999999999997 73.79999999999998 18.799999999999955
  endloop
endfacet
facet normal 0.0 -1.0 0.0
  outer loop
    vertex 102.09999999999997 73.79999999999998 18.49999999999996
    vertex 104.09999999999997 73.79999999999998 18.799999999999955
    vertex 102.09999999999997 73.79999999999998 18.799999999999955
  endloop
endfacet
facet normal 0.0 -1.0 0.0
  outer loop
    vertex 77.69999999999999 73.79999999999998 18.49999999999996
    vertex 75.69999999999999 73.79999999999998 18.499999999999954
    vertex 102.09999999999997 73.79999999999998 18.49999999999996
  endloop
endfacet
facet normal 0.0 1.4099832412739432e-15 -1.0
  outer loop
    vertex 104.09999999999997 73.79999999999998 18.799999999999955
    vertex 102.09999999999997 71.99999999999999 18.799999999999955
    vertex 102.09999999999997 73.79999999999998 18.799999999999955
  endloop
endfacet
facet normal 0.0 1.4099832412739432e-15 -1.0
  outer loop
    vertex 102.09999999999997 71.99999999999999 18.799999999999955
    vertex 104.09999999999997 73.79999999999998 18.799999999999955
    vertex 104.09999999999997 71.99999999999999 18.799999999999955
  endloop
endfacet
facet normal -1.127986593019161e-14 -1.0 -1.4649176532716333e-15
  outer loop
    vertex 104.09999999999997 71.99999999999994 26.499999999999964
    vertex 102.09999999999997 71.99999999999999 18.799999999999955
    vertex 104.09999999999997 71.99999999999999 18.799999999999955
  endloop
endfacet
facet normal -1.127986593019161e-14 -1.0 -1.4649176532716333e-15
  outer loop
    vertex 102.09999999999997 71.99999999999999 18.799999999999955
    vertex 104.09999999999997 71.99999999999994 26.499999999999964
    vertex 102.09999999999997 71.99999999999999 26.499999999999964
  endloop
endfacet
facet normal 2.8199664825479026e-15 2.8199664825478872e-15 -1.0
  outer loop
    vertex 75.69999999999999 73.79999999999998 18.499999999999954
    vertex 77.69999999999997 71.99999999999999 18.499999999999954
    vertex 75.69999999999997 71.99999999999999 18.49999999999995
  endloop
endfacet
facet normal 2.8199664825479026e-15 2.8199664825478872e-15 -1.0
  outer loop
    vertex 77.69999999999997 71.99999999999999 18.499999999999954
    vertex 75.69999999999999 73.79999999999998 18.499999999999954
    vertex 77.69999999999999 73.79999999999998 18.49999999999996
  endloop
endfacet
endsolid Air quality SDS011 box 01
