solid Air quality SDS011 box
facet normal 0.0 1.3877787807814454e-17 1.0
  outer loop
    vertex 77.69999999999999 94.77189049978524 18.628109500214787
    vertex 75.7 94.67189049978525 18.628109500214777
    vertex 77.69999999999999 94.67189049978525 18.628109500214777
  endloop
endfacet
facet normal 0.0 1.3877787807814454e-17 1.0
  outer loop
    vertex 148.3 70.17189049978523 18.628109500214755
    vertex 104.1 84.67189049978523 18.628109500214755
    vertex 8.50000000000003 70.17189049978523 18.628109500214755
  endloop
endfacet
facet normal 0.0 1.3877787807814454e-17 1.0
  outer loop
    vertex 104.1 84.67189049978523 18.628109500214755
    vertex 148.3 70.17189049978523 18.628109500214755
    vertex 148.3 95.67189049978525 18.628109500214755
  endloop
endfacet
facet normal 0.0 1.3877787807814454e-17 1.0
  outer loop
    vertex 104.1 84.67189049978523 18.628109500214755
    vertex 148.3 95.67189049978525 18.628109500214755
    vertex 104.1 94.67189049978525 18.628109500214787
  endloop
endfacet
facet normal 0.0 1.3877787807814454e-17 1.0
  outer loop
    vertex 104.1 94.67189049978525 18.628109500214787
    vertex 148.3 95.67189049978525 18.628109500214755
    vertex 102.1 94.67189049978525 18.628109500214755
  endloop
endfacet
facet normal 0.0 1.3877787807814454e-17 1.0
  outer loop
    vertex 102.1 94.67189049978525 18.628109500214755
    vertex 148.3 95.67189049978525 18.628109500214755
    vertex 102.1 94.77189049978524 18.628109500214787
  endloop
endfacet
facet normal 0.0 1.3877787807814454e-17 1.0
  outer loop
    vertex 102.1 94.77189049978524 18.628109500214787
    vertex 148.3 95.67189049978525 18.628109500214755
    vertex 77.69999999999999 94.77189049978524 18.628109500214787
  endloop
endfacet
facet normal 0.0 1.3877787807814454e-17 1.0
  outer loop
    vertex 8.50000000000003 70.17189049978523 18.628109500214755
    vertex 75.7 84.67189049978523 18.628109500214755
    vertex 8.50000000000003 95.67189049978525 18.628109500214755
  endloop
endfacet
facet normal 0.0 1.3877787807814454e-17 1.0
  outer loop
    vertex 75.7 84.67189049978523 18.628109500214755
    vertex 8.50000000000003 70.17189049978523 18.628109500214755
    vertex 104.1 84.67189049978523 18.628109500214755
  endloop
endfacet
facet normal 0.0 1.3877787807814454e-17 1.0
  outer loop
    vertex 8.50000000000003 95.67189049978525 18.628109500214755
    vertex 75.7 84.67189049978523 18.628109500214755
    vertex 75.7 94.67189049978525 18.628109500214777
  endloop
endfacet
facet normal 0.0 1.3877787807814454e-17 1.0
  outer loop
    vertex 8.50000000000003 95.67189049978525 18.628109500214755
    vertex 75.7 94.67189049978525 18.628109500214777
    vertex 77.69999999999999 94.77189049978524 18.628109500214787
  endloop
endfacet
facet normal 0.0 1.3877787807814454e-17 1.0
  outer loop
    vertex 8.50000000000003 95.67189049978525 18.628109500214755
    vertex 77.69999999999999 94.77189049978524 18.628109500214787
    vertex 148.3 95.67189049978525 18.628109500214755
  endloop
endfacet
facet normal 0.0 1.0 -1.2490009027033009e-16
  outer loop
    vertex 148.3 95.67189049978525 18.628109500214755
    vertex 8.50000000000003 95.67189049978525 17.12810950021476
    vertex 8.50000000000003 95.67189049978525 18.628109500214755
  endloop
endfacet
facet normal 0.0 1.0 -1.2490009027033009e-16
  outer loop
    vertex 8.50000000000003 95.67189049978525 17.12810950021476
    vertex 148.3 95.67189049978525 18.628109500214755
    vertex 148.3 95.67189049978525 17.12810950021476
  endloop
endfacet
facet normal 0.0 -1.0 1.2490009027033009e-16
  outer loop
    vertex 148.3 70.17189049978523 17.12810950021476
    vertex 8.50000000000003 70.17189049978523 18.628109500214755
    vertex 8.50000000000003 70.17189049978523 17.12810950021476
  endloop
endfacet
facet normal 0.0 -1.0 1.2490009027033009e-16
  outer loop
    vertex 8.50000000000003 70.17189049978523 18.628109500214755
    vertex 148.3 70.17189049978523 17.12810950021476
    vertex 148.3 70.17189049978523 18.628109500214755
  endloop
endfacet
facet normal 0.0 -1.2490009027033009e-16 -1.0
  outer loop
    vertex 8.50000000000003 95.67189049978525 17.12810950021476
    vertex 148.3 70.17189049978523 17.12810950021476
    vertex 8.50000000000003 70.17189049978523 17.12810950021476
  endloop
endfacet
facet normal 0.0 -1.2490009027033009e-16 -1.0
  outer loop
    vertex 148.3 70.17189049978523 17.12810950021476
    vertex 8.50000000000003 95.67189049978525 17.12810950021476
    vertex 77.69999999999999 86.67189049978523 17.12810950021476
  endloop
endfacet
facet normal 0.0 -1.2490009027033009e-16 -1.0
  outer loop
    vertex 77.69999999999999 86.67189049978523 17.12810950021476
    vertex 8.50000000000003 95.67189049978525 17.12810950021476
    vertex 77.69999999999999 94.77189049978524 17.12810950021479
  endloop
endfacet
facet normal 0.0 -1.2490009027033009e-16 -1.0
  outer loop
    vertex 77.69999999999999 94.77189049978524 17.12810950021479
    vertex 8.50000000000003 95.67189049978525 17.12810950021476
    vertex 102.1 94.77189049978524 17.12810950021479
  endloop
endfacet
facet normal 0.0 -1.2490009027033009e-16 -1.0
  outer loop
    vertex 148.3 70.17189049978523 17.12810950021476
    vertex 102.1 86.67189049978523 17.12810950021476
    vertex 148.3 95.67189049978525 17.12810950021476
  endloop
endfacet
facet normal 0.0 -1.2490009027033009e-16 -1.0
  outer loop
    vertex 102.1 86.67189049978523 17.12810950021476
    vertex 148.3 70.17189049978523 17.12810950021476
    vertex 77.69999999999999 86.67189049978523 17.12810950021476
  endloop
endfacet
facet normal 0.0 -1.2490009027033009e-16 -1.0
  outer loop
    vertex 148.3 95.67189049978525 17.12810950021476
    vertex 102.1 86.67189049978523 17.12810950021476
    vertex 102.1 94.77189049978524 17.12810950021479
  endloop
endfacet
facet normal 0.0 -1.2490009027033009e-16 -1.0
  outer loop
    vertex 148.3 95.67189049978525 17.12810950021476
    vertex 102.1 94.77189049978524 17.12810950021479
    vertex 8.50000000000003 95.67189049978525 17.12810950021476
  endloop
endfacet
facet normal -1.0 0.0 -0.0
  outer loop
    vertex 8.50000000000003 95.67189049978525 17.12810950021476
    vertex 8.50000000000003 70.17189049978523 18.628109500214755
    vertex 8.50000000000003 95.67189049978525 18.628109500214755
  endloop
endfacet
facet normal -1.0 0.0 -0.0
  outer loop
    vertex 8.50000000000003 70.17189049978523 18.628109500214755
    vertex 8.50000000000003 95.67189049978525 17.12810950021476
    vertex 8.50000000000003 70.17189049978523 17.12810950021476
  endloop
endfacet
facet normal 1.0 0.0 0.0
  outer loop
    vertex 148.3 70.17189049978523 17.12810950021476
    vertex 148.3 95.67189049978525 18.628109500214755
    vertex 148.3 70.17189049978523 18.628109500214755
  endloop
endfacet
facet normal 1.0 0.0 0.0
  outer loop
    vertex 148.3 95.67189049978525 18.628109500214755
    vertex 148.3 70.17189049978523 17.12810950021476
    vertex 148.3 95.67189049978525 17.12810950021476
  endloop
endfacet
facet normal -1.0 0.0 -0.0
  outer loop
    vertex 102.1 94.77189049978524 17.12810950021479
    vertex 102.1 94.67189049978525 18.628109500214755
    vertex 102.1 94.77189049978524 18.628109500214787
  endloop
endfacet
facet normal -1.0 0.0 -0.0
  outer loop
    vertex 102.1 94.6718904997852 33.42810950021475
    vertex 102.1 86.97189049978519 31.628109500214755
    vertex 102.1 86.97189049978519 33.42810950021477
  endloop
endfacet
facet normal -1.0 0.0 -0.0
  outer loop
    vertex 102.1 86.97189049978519 31.628109500214755
    vertex 102.1 94.6718904997852 33.42810950021475
    vertex 102.1 94.67189049978525 18.628109500214755
  endloop
endfacet
facet normal -1.0 0.0 -0.0
  outer loop
    vertex 102.1 86.97189049978519 31.628109500214755
    vertex 102.1 94.67189049978525 18.628109500214755
    vertex 102.1 86.6718904997852 31.628109500214755
  endloop
endfacet
facet normal -1.0 0.0 -0.0
  outer loop
    vertex 102.1 86.6718904997852 31.628109500214755
    vertex 102.1 94.67189049978525 18.628109500214755
    vertex 102.1 86.67189049978523 17.12810950021476
  endloop
endfacet
facet normal -1.0 0.0 -0.0
  outer loop
    vertex 102.1 86.67189049978523 17.12810950021476
    vertex 102.1 94.67189049978525 18.628109500214755
    vertex 102.1 94.77189049978524 17.12810950021479
  endloop
endfacet
facet normal 3.9794585436381745e-32 1.0 2.3198875770594113e-15
  outer loop
    vertex 77.7 86.6718904997852 31.628109500214755
    vertex 102.1 86.67189049978523 17.12810950021476
    vertex 77.69999999999999 86.67189049978523 17.12810950021476
  endloop
endfacet
facet normal 3.9794585436381745e-32 1.0 2.3198875770594113e-15
  outer loop
    vertex 102.1 86.67189049978523 17.12810950021476
    vertex 77.7 86.6718904997852 31.628109500214755
    vertex 102.1 86.6718904997852 31.628109500214755
  endloop
endfacet
facet normal 1.0 3.738052546565196e-16 -1.360160142684433e-16
  outer loop
    vertex 77.69999999999999 86.67189049978519 33.42810950021475
    vertex 77.69999999999999 94.67189049978525 18.628109500214777
    vertex 77.69999999999999 94.6718904997852 33.428109500214774
  endloop
endfacet
facet normal 1.0 3.738052546565196e-16 -1.360160142684433e-16
  outer loop
    vertex 77.69999999999999 94.67189049978525 18.628109500214777
    vertex 77.69999999999999 86.67189049978519 33.42810950021475
    vertex 77.7 86.6718904997852 31.628109500214755
  endloop
endfacet
facet normal 1.0 3.738052546565196e-16 -1.360160142684433e-16
  outer loop
    vertex 77.69999999999999 94.67189049978525 18.628109500214777
    vertex 77.7 86.6718904997852 31.628109500214755
    vertex 77.69999999999999 86.67189049978523 17.12810950021476
  endloop
endfacet
facet normal 1.0 3.738052546565196e-16 -1.360160142684433e-16
  outer loop
    vertex 77.69999999999999 94.67189049978525 18.628109500214777
    vertex 77.69999999999999 86.67189049978523 17.12810950021476
    vertex 77.69999999999999 94.77189049978524 17.12810950021479
  endloop
endfacet
facet normal 1.0 3.738052546565196e-16 -1.360160142684433e-16
  outer loop
    vertex 77.69999999999999 94.77189049978524 17.12810950021479
    vertex 77.69999999999999 94.77189049978524 18.628109500214787
    vertex 77.69999999999999 94.67189049978525 18.628109500214777
  endloop
endfacet
facet normal 0.0 -1.0 -4.216071936014033e-15
  outer loop
    vertex 102.1 94.77189049978524 17.12810950021479
    vertex 77.69999999999999 94.77189049978524 18.628109500214787
    vertex 77.69999999999999 94.77189049978524 17.12810950021479
  endloop
endfacet
facet normal 0.0 -1.0 -4.216071936014033e-15
  outer loop
    vertex 77.69999999999999 94.77189049978524 18.628109500214787
    vertex 102.1 94.77189049978524 17.12810950021479
    vertex 102.1 94.77189049978524 18.628109500214787
  endloop
endfacet
facet normal 3.9450421572737674e-30 -2.8060886947400787e-15 1.0
  outer loop
    vertex 77.69999999999999 86.67189049978519 33.42810950021475
    vertex 75.7 94.6718904997852 33.428109500214774
    vertex 75.7 86.67189049978519 33.42810950021475
  endloop
endfacet
facet normal 3.9450421572737674e-30 -2.8060886947400787e-15 1.0
  outer loop
    vertex 75.7 94.6718904997852 33.428109500214774
    vertex 77.69999999999999 86.67189049978519 33.42810950021475
    vertex 77.69999999999999 94.6718904997852 33.428109500214774
  endloop
endfacet
facet normal 0.0 1.0 2.1265786989454063e-15
  outer loop
    vertex 77.69999999999999 94.6718904997852 33.428109500214774
    vertex 75.7 94.67189049978525 18.628109500214777
    vertex 75.7 94.6718904997852 33.428109500214774
  endloop
endfacet
facet normal 0.0 1.0 2.1265786989454063e-15
  outer loop
    vertex 75.7 94.67189049978525 18.628109500214777
    vertex 77.69999999999999 94.6718904997852 33.428109500214774
    vertex 77.69999999999999 94.67189049978525 18.628109500214777
  endloop
endfacet
facet normal -1.0 -3.096546948326761e-16 9.700294024507432e-17
  outer loop
    vertex 75.7 94.67189049978525 18.628109500214777
    vertex 75.7 86.67189049978519 33.42810950021475
    vertex 75.7 94.6718904997852 33.428109500214774
  endloop
endfacet
facet normal -1.0 -3.096546948326761e-16 9.700294024507432e-17
  outer loop
    vertex 75.7 86.67189049978519 33.42810950021475
    vertex 75.7 94.67189049978525 18.628109500214777
    vertex 75.7 86.67189049978519 31.628109500214755
  endloop
endfacet
facet normal -1.0 -3.096546948326761e-16 9.700294024507432e-17
  outer loop
    vertex 75.7 86.67189049978519 31.628109500214755
    vertex 75.7 94.67189049978525 18.628109500214777
    vertex 75.7 84.6718904997852 31.628109500214755
  endloop
endfacet
facet normal -1.0 -3.096546948326761e-16 9.700294024507432e-17
  outer loop
    vertex 75.7 84.6718904997852 31.628109500214755
    vertex 75.7 94.67189049978525 18.628109500214777
    vertex 75.7 84.67189049978523 18.628109500214755
  endloop
endfacet
facet normal 9.929459445591188e-17 -1.0 -2.155327198767491e-15
  outer loop
    vertex 104.1 84.67189049978523 18.628109500214755
    vertex 75.7 84.6718904997852 31.628109500214755
    vertex 75.7 84.67189049978523 18.628109500214755
  endloop
endfacet
facet normal 9.929459445591188e-17 -1.0 -2.155327198767491e-15
  outer loop
    vertex 75.7 84.6718904997852 31.628109500214755
    vertex 104.1 84.67189049978523 18.628109500214755
    vertex 104.1 84.6718904997852 31.628109500214755
  endloop
endfacet
facet normal 1.0 0.0 0.0
  outer loop
    vertex 104.1 84.67189049978523 18.628109500214755
    vertex 104.1 86.97189049978519 31.628109500214755
    vertex 104.1 84.6718904997852 31.628109500214755
  endloop
endfacet
facet normal 1.0 0.0 0.0
  outer loop
    vertex 104.1 86.97189049978519 31.628109500214755
    vertex 104.1 84.67189049978523 18.628109500214755
    vertex 104.1 94.67189049978525 18.628109500214787
  endloop
endfacet
facet normal 1.0 0.0 0.0
  outer loop
    vertex 104.1 86.97189049978519 33.42810950021477
    vertex 104.1 94.67189049978525 18.628109500214787
    vertex 104.1 94.6718904997852 33.428109500214795
  endloop
endfacet
facet normal 1.0 0.0 0.0
  outer loop
    vertex 104.1 94.67189049978525 18.628109500214787
    vertex 104.1 86.97189049978519 33.42810950021477
    vertex 104.1 86.97189049978519 31.628109500214755
  endloop
endfacet
facet normal -3.6216093299977924e-29 1.0 2.1265786989454063e-15
  outer loop
    vertex 104.1 94.6718904997852 33.428109500214795
    vertex 102.1 94.67189049978525 18.628109500214755
    vertex 102.1 94.6718904997852 33.42810950021475
  endloop
endfacet
facet normal -3.6216093299977924e-29 1.0 2.1265786989454063e-15
  outer loop
    vertex 102.1 94.67189049978525 18.628109500214755
    vertex 104.1 94.6718904997852 33.428109500214795
    vertex 104.1 94.67189049978525 18.628109500214787
  endloop
endfacet
facet normal 0.0 1.3877787807814454e-17 1.0
  outer loop
    vertex 104.1 84.6718904997852 31.628109500214755
    vertex 75.7 86.67189049978519 31.628109500214755
    vertex 75.7 84.6718904997852 31.628109500214755
  endloop
endfacet
facet normal 0.0 1.3877787807814454e-17 1.0
  outer loop
    vertex 75.7 86.67189049978519 31.628109500214755
    vertex 104.1 84.6718904997852 31.628109500214755
    vertex 102.1 86.6718904997852 31.628109500214755
  endloop
endfacet
facet normal 0.0 1.3877787807814454e-17 1.0
  outer loop
    vertex 102.1 86.6718904997852 31.628109500214755
    vertex 104.1 84.6718904997852 31.628109500214755
    vertex 104.1 86.97189049978519 31.628109500214755
  endloop
endfacet
facet normal 0.0 1.3877787807814454e-17 1.0
  outer loop
    vertex 102.1 86.6718904997852 31.628109500214755
    vertex 104.1 86.97189049978519 31.628109500214755
    vertex 102.1 86.97189049978519 31.628109500214755
  endloop
endfacet
facet normal 0.0 1.3877787807814454e-17 1.0
  outer loop
    vertex 77.7 86.6718904997852 31.628109500214755
    vertex 75.7 86.67189049978519 31.628109500214755
    vertex 102.1 86.6718904997852 31.628109500214755
  endloop
endfacet
facet normal 0.0 -1.0 -1.3961054534661287e-15
  outer loop
    vertex 104.1 86.97189049978519 31.628109500214755
    vertex 102.1 86.97189049978519 33.42810950021477
    vertex 102.1 86.97189049978519 31.628109500214755
  endloop
endfacet
facet normal 0.0 -1.0 -1.3961054534661287e-15
  outer loop
    vertex 102.1 86.97189049978519 33.42810950021477
    vertex 104.1 86.97189049978519 31.628109500214755
    vertex 104.1 86.97189049978519 33.42810950021477
  endloop
endfacet
facet normal -1.127986593019161e-14 -1.4510398654638189e-15 1.0
  outer loop
    vertex 104.1 94.6718904997852 33.428109500214795
    vertex 102.1 86.97189049978519 33.42810950021477
    vertex 104.1 86.97189049978519 33.42810950021477
  endloop
endfacet
facet normal -1.127986593019161e-14 -1.4510398654638189e-15 1.0
  outer loop
    vertex 102.1 86.97189049978519 33.42810950021477
    vertex 104.1 94.6718904997852 33.428109500214795
    vertex 102.1 94.6718904997852 33.42810950021475
  endloop
endfacet
facet normal 2.8199664825479026e-15 -1.0 -2.8060886947400727e-15
  outer loop
    vertex 75.7 86.67189049978519 31.628109500214755
    vertex 77.69999999999999 86.67189049978519 33.42810950021475
    vertex 75.7 86.67189049978519 33.42810950021475
  endloop
endfacet
facet normal 2.8199664825479026e-15 -1.0 -2.8060886947400727e-15
  outer loop
    vertex 77.69999999999999 86.67189049978519 33.42810950021475
    vertex 75.7 86.67189049978519 31.628109500214755
    vertex 77.7 86.6718904997852 31.628109500214755
  endloop
endfacet
endsolid Air quality SDS011 box
