solid Air quality SDS011 box 01
facet normal 0.0 1.1102230246251563e-16 1.0
  outer loop
    vertex 148.29999999999998 3.40000000000001 27.499999999999996
    vertex 8.500000000000002 4.9000000000000075 27.499999999999996
    vertex 8.500000000000002 3.40000000000001 27.499999999999996
  endloop
endfacet
facet normal 0.0 1.1102230246251563e-16 1.0
  outer loop
    vertex 8.500000000000002 4.9000000000000075 27.499999999999996
    vertex 148.29999999999998 3.40000000000001 27.499999999999996
    vertex 148.29999999999998 4.9000000000000075 27.499999999999996
  endloop
endfacet
facet normal 0.0 -1.1102230246251563e-16 -1.0
  outer loop
    vertex 148.29999999999998 4.9000000000000075 1.9999999999999907
    vertex 8.500000000000002 3.40000000000001 1.9999999999999907
    vertex 8.500000000000002 4.9000000000000075 1.9999999999999907
  endloop
endfacet
facet normal 0.0 -1.1102230246251563e-16 -1.0
  outer loop
    vertex 8.500000000000002 3.40000000000001 1.9999999999999907
    vertex 148.29999999999998 4.9000000000000075 1.9999999999999907
    vertex 148.29999999999998 3.40000000000001 1.9999999999999907
  endloop
endfacet
facet normal -1.0 0.0 0.0
  outer loop
    vertex 8.500000000000002 4.9000000000000075 27.499999999999996
    vertex 8.500000000000002 3.40000000000001 1.9999999999999907
    vertex 8.500000000000002 3.40000000000001 27.499999999999996
  endloop
endfacet
facet normal -1.0 0.0 0.0
  outer loop
    vertex 8.500000000000002 3.40000000000001 1.9999999999999907
    vertex 8.500000000000002 4.9000000000000075 27.499999999999996
    vertex 8.500000000000002 4.9000000000000075 1.9999999999999907
  endloop
endfacet
facet normal 1.0 0.0 0.0
  outer loop
    vertex 148.29999999999998 4.9000000000000075 1.9999999999999907
    vertex 148.29999999999998 3.40000000000001 27.499999999999996
    vertex 148.29999999999998 3.40000000000001 1.9999999999999907
  endloop
endfacet
facet normal 1.0 0.0 0.0
  outer loop
    vertex 148.29999999999998 3.40000000000001 27.499999999999996
    vertex 148.29999999999998 4.9000000000000075 1.9999999999999907
    vertex 148.29999999999998 4.9000000000000075 27.499999999999996
  endloop
endfacet
facet normal -1.0 1.5106963299363733e-16 -3.0429378683776375e-32
  outer loop
    vertex 41.5 3.400000000000009 18.499999999999993
    vertex 41.5 4.9000000000000075 7.499999999999995
    vertex 41.5 3.400000000000007 7.499999999999995
  endloop
endfacet
facet normal -1.0 1.5106963299363733e-16 -3.0429378683776375e-32
  outer loop
    vertex 41.5 4.9000000000000075 7.499999999999995
    vertex 41.5 3.400000000000009 18.499999999999993
    vertex 41.5 4.900000000000008 18.499999999999993
  endloop
endfacet
facet normal -1.0143126227925458e-32 -1.0071308866242491e-16 -1.0
  outer loop
    vertex 41.5 4.900000000000008 18.499999999999993
    vertex 23.5 3.40000000000001 18.499999999999993
    vertex 23.5 4.90000000000001 18.499999999999993
  endloop
endfacet
facet normal -1.0143126227925458e-32 -1.0071308866242491e-16 -1.0
  outer loop
    vertex 23.5 3.40000000000001 18.499999999999993
    vertex 41.5 4.900000000000008 18.499999999999993
    vertex 41.5 3.400000000000009 18.499999999999993
  endloop
endfacet
facet normal 1.0 -1.5106963299363733e-16 0.0
  outer loop
    vertex 23.5 4.90000000000001 7.499999999999995
    vertex 23.5 3.40000000000001 18.499999999999993
    vertex 23.5 3.40000000000001 7.499999999999995
  endloop
endfacet
facet normal 1.0 -1.5106963299363733e-16 0.0
  outer loop
    vertex 23.5 3.40000000000001 18.499999999999993
    vertex 23.5 4.90000000000001 7.499999999999995
    vertex 23.5 4.90000000000001 18.499999999999993
  endloop
endfacet
facet normal 2.0286252455850916e-32 1.0071308866242491e-16 1.0
  outer loop
    vertex 41.5 3.400000000000007 7.499999999999995
    vertex 23.5 4.90000000000001 7.499999999999995
    vertex 23.5 3.40000000000001 7.499999999999995
  endloop
endfacet
facet normal 2.0286252455850916e-32 1.0071308866242491e-16 1.0
  outer loop
    vertex 23.5 4.90000000000001 7.499999999999995
    vertex 41.5 3.400000000000007 7.499999999999995
    vertex 41.5 4.9000000000000075 7.499999999999995
  endloop
endfacet
facet normal 0.7983037191083122 -8.271392570098957e-15 -0.6022550722557984
  outer loop
    vertex 110.40052639069098 4.9000000000000075 16.443225215472044
    vertex 111.65828737191916 3.400000000000007 18.110417930517073
    vertex 110.40052639069096 3.400000000000007 16.44322521547205
  endloop
endfacet
facet normal 0.7983037191083122 -8.271392570098957e-15 -0.6022550722557984
  outer loop
    vertex 111.65828737191916 3.400000000000007 18.110417930517073
    vertex 110.40052639069098 4.9000000000000075 16.443225215472044
    vertex 111.65828737191916 4.9000000000000075 18.110417930517066
  endloop
endfacet
facet normal 0.6022550722557982 -3.7226705183451045e-16 0.7983037191083123
  outer loop
    vertex 113.41797462683732 3.400000000000007 5.539326548381578
    vertex 111.75078191179232 4.9000000000000075 6.797087529609755
    vertex 111.75078191179232 3.400000000000007 6.797087529609755
  endloop
endfacet
facet normal 0.6022550722557982 -3.7226705183451045e-16 0.7983037191083123
  outer loop
    vertex 111.75078191179232 4.9000000000000075 6.797087529609755
    vertex 113.41797462683732 3.400000000000007 5.539326548381578
    vertex 113.41797462683732 4.9000000000000075 5.53932654838158
  endloop
endfacet
facet normal 0.9924788368112959 -3.9579280232603113e-16 -0.12241633257738672
  outer loop
    vertex 109.36146719802392 4.9000000000000075 12.434596483632951
    vertex 109.61712380213383 3.400000000000007 14.507308218480384
    vertex 109.36146719802392 3.400000000000007 12.434596483632955
  endloop
endfacet
facet normal 0.9924788368112959 -3.9579280232603113e-16 -0.12241633257738672
  outer loop
    vertex 109.61712380213383 3.400000000000007 14.507308218480384
    vertex 109.36146719802392 4.9000000000000075 12.434596483632951
    vertex 109.61712380213383 4.9000000000000075 14.507308218480379
  endloop
endfacet
facet normal -0.7883499345868624 1.1667034400728834e-15 -0.6152270967999459
  outer loop
    vertex 122.97161777282645 4.9000000000000075 18.20291247039022
    vertex 124.25646977756077 3.400000000000007 16.55650742881341
    vertex 122.97161777282645 3.400000000000007 18.20291247039022
  endloop
endfacet
facet normal -0.7883499345868624 1.1667034400728834e-15 -0.6152270967999459
  outer loop
    vertex 124.25646977756077 3.400000000000007 16.55650742881341
    vertex 122.97161777282645 4.9000000000000075 18.20291247039022
    vertex 124.25646977756077 4.9000000000000075 16.556507428813415
  endloop
endfacet
facet normal -0.39022376455549873 7.603988804439019e-16 0.9207200516857091
  outer loop
    vertex 121.4177072711228 3.400000000000007 5.604730064748613
    vertex 119.49485795196784 4.9000000000000075 4.789779311129363
    vertex 119.49485795196784 3.400000000000007 4.7897793111293625
  endloop
endfacet
facet normal -0.39022376455549873 7.603988804439019e-16 0.9207200516857091
  outer loop
    vertex 119.49485795196784 4.9000000000000075 4.789779311129363
    vertex 121.4177072711228 3.400000000000007 5.604730064748613
    vertex 121.41770727112282 4.9000000000000075 5.604730064748618
  endloop
endfacet
facet normal 0.13862732763186092 9.313371212348286e-16 -0.9903446188239974
  outer loop
    vertex 117.29579632594236 4.9000000000000075 20.49973264428547
    vertex 115.22754173265092 3.400000000000007 20.210220688870614
    vertex 115.22754173265092 4.9000000000000075 20.210220688870617
  endloop
endfacet
facet normal 0.13862732763186092 9.313371212348286e-16 -0.9903446188239974
  outer loop
    vertex 115.22754173265092 3.400000000000007 20.210220688870614
    vertex 117.29579632594236 4.9000000000000075 20.49973264428547
    vertex 117.29579632594236 3.400000000000007 20.49973264428547
  endloop
endfacet
facet normal -0.3751175220240584 2.8221357813928153e-15 -0.926977262218729
  outer loop
    vertex 119.3685080607898 4.9000000000000075 20.24407604017554
    vertex 121.30442505778144 3.400000000000007 19.460673451618394
    vertex 119.36850806078978 3.400000000000007 20.24407604017554
  endloop
endfacet
facet normal -0.3751175220240584 2.8221357813928153e-15 -0.926977262218729
  outer loop
    vertex 121.30442505778144 3.400000000000007 19.460673451618394
    vertex 119.3685080607898 4.9000000000000075 20.24407604017554
    vertex 121.30442505778144 4.9000000000000075 19.460673451618394
  endloop
endfacet
facet normal 0.12241633257739372 4.628152941596861e-16 0.992478836811295
  outer loop
    vertex 117.42660335867643 3.400000000000007 4.500267355714505
    vertex 115.35389162382899 4.9000000000000075 4.755923959824436
    vertex 115.35389162382899 3.400000000000007 4.755923959824437
  endloop
endfacet
facet normal 0.12241633257739372 4.628152941596861e-16 0.992478836811295
  outer loop
    vertex 115.35389162382899 4.9000000000000075 4.755923959824436
    vertex 117.42660335867643 3.400000000000007 4.500267355714505
    vertex 117.42660335867643 4.9000000000000075 4.500267355714505
  endloop
endfacet
facet normal 0.9207200516857107 5.337791172312505e-16 0.3902237645554952
  outer loop
    vertex 110.465929907058 4.9000000000000075 8.443492571186562
    vertex 109.65097915343875 3.400000000000007 10.366341890341518
    vertex 110.465929907058 3.400000000000007 8.443492571186562
  endloop
endfacet
facet normal 0.9207200516857107 5.337791172312505e-16 0.3902237645554952
  outer loop
    vertex 109.65097915343875 3.400000000000007 10.366341890341518
    vertex 110.465929907058 4.9000000000000075 8.443492571186562
    vertex 109.65097915343875 4.9000000000000075 10.366341890341515
  endloop
endfacet
facet normal -0.12241633257739472 9.209794054125559e-16 -0.9924788368112948
  outer loop
    vertex 119.3685080607898 4.9000000000000075 20.24407604017554
    vertex 117.29579632594236 3.400000000000007 20.49973264428547
    vertex 117.29579632594236 4.9000000000000075 20.49973264428547
  endloop
endfacet
facet normal -0.12241633257739472 9.209794054125559e-16 -0.9924788368112948
  outer loop
    vertex 117.29579632594236 3.400000000000007 20.49973264428547
    vertex 119.3685080607898 4.9000000000000075 20.24407604017554
    vertex 119.36850806078978 3.400000000000007 20.24407604017554
  endloop
endfacet
facet normal 0.7883499345868622 2.8689428854251236e-16 0.6152270967999461
  outer loop
    vertex 111.75078191179232 4.9000000000000075 6.797087529609755
    vertex 110.465929907058 3.400000000000007 8.443492571186562
    vertex 111.75078191179232 3.400000000000007 6.797087529609755
  endloop
endfacet
facet normal 0.7883499345868622 2.8689428854251236e-16 0.6152270967999461
  outer loop
    vertex 110.465929907058 3.400000000000007 8.443492571186562
    vertex 111.75078191179232 4.9000000000000075 6.797087529609755
    vertex 110.465929907058 4.9000000000000075 8.443492571186562
  endloop
endfacet
facet normal 0.6152270967999407 -7.597591131524108e-16 -0.7883499345868663
  outer loop
    vertex 113.30469241349597 4.9000000000000075 19.39526993525137
    vertex 111.65828737191916 3.400000000000007 18.110417930517073
    vertex 111.65828737191916 4.9000000000000075 18.110417930517066
  endloop
endfacet
facet normal 0.6152270967999407 -7.597591131524108e-16 -0.7883499345868663
  outer loop
    vertex 111.65828737191916 3.400000000000007 18.110417930517073
    vertex 113.30469241349597 4.9000000000000075 19.39526993525137
    vertex 113.30469241349597 3.400000000000007 19.395269935251367
  endloop
endfacet
facet normal -0.13862732763186403 -4.695170611183844e-16 0.9903446188239969
  outer loop
    vertex 119.49485795196784 3.400000000000007 4.7897793111293625
    vertex 117.42660335867643 4.9000000000000075 4.500267355714505
    vertex 117.42660335867643 3.400000000000007 4.500267355714505
  endloop
endfacet
facet normal -0.13862732763186403 -4.695170611183844e-16 0.9903446188239969
  outer loop
    vertex 117.42660335867643 4.9000000000000075 4.500267355714505
    vertex 119.49485795196784 3.400000000000007 4.7897793111293625
    vertex 119.49485795196784 4.9000000000000075 4.789779311129363
  endloop
endfacet
facet normal -0.6022550722557981 7.445341036690212e-16 -0.7983037191083125
  outer loop
    vertex 122.97161777282645 4.9000000000000075 18.20291247039022
    vertex 121.30442505778144 3.400000000000007 19.460673451618394
    vertex 121.30442505778144 4.9000000000000075 19.460673451618394
  endloop
endfacet
facet normal -0.6022550722557981 7.445341036690212e-16 -0.7983037191083125
  outer loop
    vertex 121.30442505778144 3.400000000000007 19.460673451618394
    vertex 122.97161777282645 4.9000000000000075 18.20291247039022
    vertex 122.97161777282645 3.400000000000007 18.20291247039022
  endloop
endfacet
facet normal -0.9269772622187278 -4.734657550601205e-15 0.37511752202406123
  outer loop
    vertex 125.10527588248493 4.9000000000000075 10.492691781519603
    vertex 124.32187329392778 3.400000000000007 8.55677478452792
    vertex 125.10527588248493 3.400000000000007 10.492691781519582
  endloop
endfacet
facet normal -0.9269772622187278 -4.734657550601205e-15 0.37511752202406123
  outer loop
    vertex 124.32187329392778 3.400000000000007 8.55677478452792
    vertex 125.10527588248493 4.9000000000000075 10.492691781519603
    vertex 124.32187329392778 4.9000000000000075 8.556774784527937
  endloop
endfacet
facet normal -0.9924788368112952 -9.255432422954889e-15 0.12241633257739212
  outer loop
    vertex 125.36093248659485 4.9000000000000075 12.565403516367029
    vertex 125.10527588248493 3.400000000000007 10.492691781519582
    vertex 125.36093248659488 3.400000000000007 12.565403516367008
  endloop
endfacet
facet normal -0.9924788368112952 -9.255432422954889e-15 0.12241633257739212
  outer loop
    vertex 125.10527588248493 3.400000000000007 10.492691781519582
    vertex 125.36093248659485 4.9000000000000075 12.565403516367029
    vertex 125.10527588248493 4.9000000000000075 10.492691781519603
  endloop
endfacet
facet normal 0.39022376455549856 1.7317219604190018e-15 -0.9207200516857091
  outer loop
    vertex 115.22754173265092 4.9000000000000075 20.210220688870617
    vertex 113.30469241349597 3.400000000000007 19.395269935251367
    vertex 113.30469241349597 4.9000000000000075 19.39526993525137
  endloop
endfacet
facet normal 0.39022376455549856 1.7317219604190018e-15 -0.9207200516857091
  outer loop
    vertex 113.30469241349597 3.400000000000007 19.395269935251367
    vertex 115.22754173265092 4.9000000000000075 20.210220688870617
    vertex 115.22754173265092 3.400000000000007 20.210220688870614
  endloop
endfacet
facet normal 0.9269772622187299 -8.37336912193417e-15 -0.37511752202405607
  outer loop
    vertex 109.61712380213383 4.9000000000000075 14.507308218480379
    vertex 110.40052639069096 3.400000000000007 16.44322521547205
    vertex 109.61712380213383 3.400000000000007 14.507308218480384
  endloop
endfacet
facet normal 0.9269772622187299 -8.37336912193417e-15 -0.37511752202405607
  outer loop
    vertex 110.40052639069096 3.400000000000007 16.44322521547205
    vertex 109.61712380213383 4.9000000000000075 14.507308218480379
    vertex 110.40052639069098 4.9000000000000075 16.443225215472044
  endloop
endfacet
facet normal -0.9903446188239969 -5.3571195787643865e-15 -0.13862732763186483
  outer loop
    vertex 125.07142053118 4.9000000000000075 14.633658109658462
    vertex 125.36093248659488 3.400000000000007 12.565403516367008
    vertex 125.07142053118 3.400000000000007 14.633658109658441
  endloop
endfacet
facet normal -0.9903446188239969 -5.3571195787643865e-15 -0.13862732763186483
  outer loop
    vertex 125.36093248659488 3.400000000000007 12.565403516367008
    vertex 125.07142053118 4.9000000000000075 14.633658109658462
    vertex 125.36093248659485 4.9000000000000075 12.565403516367029
  endloop
endfacet
facet normal -0.798303719108315 -5.654348829903507e-15 0.602255072255795
  outer loop
    vertex 124.32187329392778 4.9000000000000075 8.556774784527937
    vertex 123.0641123126996 3.400000000000007 6.889582069482902
    vertex 124.32187329392778 3.400000000000007 8.55677478452792
  endloop
endfacet
facet normal -0.798303719108315 -5.654348829903507e-15 0.602255072255795
  outer loop
    vertex 123.0641123126996 3.400000000000007 6.889582069482902
    vertex 124.32187329392778 4.9000000000000075 8.556774784527937
    vertex 123.0641123126996 4.9000000000000075 6.8895820694829135
  endloop
endfacet
facet normal -0.6152270967999414 1.925483020153059e-16 0.788349934586866
  outer loop
    vertex 123.0641123126996 3.400000000000007 6.889582069482902
    vertex 121.41770727112282 4.9000000000000075 5.604730064748618
    vertex 121.4177072711228 3.400000000000007 5.604730064748613
  endloop
endfacet
facet normal -0.6152270967999414 1.925483020153059e-16 0.788349934586866
  outer loop
    vertex 121.41770727112282 4.9000000000000075 5.604730064748618
    vertex 123.0641123126996 3.400000000000007 6.889582069482902
    vertex 123.0641123126996 4.9000000000000075 6.8895820694829135
  endloop
endfacet
facet normal -0.920720051685711 3.2997254519749935e-15 -0.390223764555494
  outer loop
    vertex 124.25646977756077 4.9000000000000075 16.556507428813415
    vertex 125.07142053118 3.400000000000007 14.633658109658441
    vertex 124.25646977756077 3.400000000000007 16.55650742881341
  endloop
endfacet
facet normal -0.920720051685711 3.2997254519749935e-15 -0.390223764555494
  outer loop
    vertex 125.07142053118 3.400000000000007 14.633658109658441
    vertex 124.25646977756077 4.9000000000000075 16.556507428813415
    vertex 125.07142053118 4.9000000000000075 14.633658109658462
  endloop
endfacet
facet normal 0.0 -1.0 0.0
  outer loop
    vertex 110.465929907058 3.400000000000007 8.443492571186562
    vertex 41.5 3.400000000000007 7.499999999999995
    vertex 111.75078191179232 3.400000000000007 6.797087529609755
  endloop
endfacet
facet normal 0.0 -1.0 0.0
  outer loop
    vertex 41.5 3.400000000000007 7.499999999999995
    vertex 110.465929907058 3.400000000000007 8.443492571186562
    vertex 41.5 3.400000000000009 18.499999999999993
  endloop
endfacet
facet normal 0.0 -1.0 0.0
  outer loop
    vertex 41.5 3.400000000000009 18.499999999999993
    vertex 110.465929907058 3.400000000000007 8.443492571186562
    vertex 109.65097915343875 3.400000000000007 10.366341890341518
  endloop
endfacet
facet normal 0.0 -1.0 0.0
  outer loop
    vertex 41.5 3.400000000000009 18.499999999999993
    vertex 109.65097915343875 3.400000000000007 10.366341890341518
    vertex 109.36146719802392 3.400000000000007 12.434596483632955
  endloop
endfacet
facet normal 0.0 -1.0 0.0
  outer loop
    vertex 41.5 3.400000000000009 18.499999999999993
    vertex 109.36146719802392 3.400000000000007 12.434596483632955
    vertex 109.61712380213383 3.400000000000007 14.507308218480384
  endloop
endfacet
facet normal 0.0 -1.0 0.0
  outer loop
    vertex 41.5 3.400000000000009 18.499999999999993
    vertex 109.61712380213383 3.400000000000007 14.507308218480384
    vertex 110.40052639069096 3.400000000000007 16.44322521547205
  endloop
endfacet
facet normal 0.0 -1.0 0.0
  outer loop
    vertex 41.5 3.400000000000009 18.499999999999993
    vertex 110.40052639069096 3.400000000000007 16.44322521547205
    vertex 111.65828737191916 3.400000000000007 18.110417930517073
  endloop
endfacet
facet normal 0.0 -1.0 0.0
  outer loop
    vertex 41.5 3.400000000000009 18.499999999999993
    vertex 111.65828737191916 3.400000000000007 18.110417930517073
    vertex 113.30469241349597 3.400000000000007 19.395269935251367
  endloop
endfacet
facet normal 0.0 -1.0 0.0
  outer loop
    vertex 41.5 3.400000000000009 18.499999999999993
    vertex 113.30469241349597 3.400000000000007 19.395269935251367
    vertex 23.5 3.40000000000001 18.499999999999993
  endloop
endfacet
facet normal 0.0 -1.0 0.0
  outer loop
    vertex 148.29999999999998 3.40000000000001 1.9999999999999907
    vertex 117.42660335867643 3.400000000000007 4.500267355714505
    vertex 8.500000000000002 3.40000000000001 1.9999999999999907
  endloop
endfacet
facet normal 0.0 -1.0 0.0
  outer loop
    vertex 117.42660335867643 3.400000000000007 4.500267355714505
    vertex 148.29999999999998 3.40000000000001 1.9999999999999907
    vertex 119.49485795196784 3.400000000000007 4.7897793111293625
  endloop
endfacet
facet normal 0.0 -1.0 0.0
  outer loop
    vertex 119.49485795196784 3.400000000000007 4.7897793111293625
    vertex 148.29999999999998 3.40000000000001 1.9999999999999907
    vertex 121.4177072711228 3.400000000000007 5.604730064748613
  endloop
endfacet
facet normal 0.0 -1.0 0.0
  outer loop
    vertex 121.4177072711228 3.400000000000007 5.604730064748613
    vertex 148.29999999999998 3.40000000000001 1.9999999999999907
    vertex 123.0641123126996 3.400000000000007 6.889582069482902
  endloop
endfacet
facet normal 0.0 -1.0 0.0
  outer loop
    vertex 123.0641123126996 3.400000000000007 6.889582069482902
    vertex 148.29999999999998 3.40000000000001 1.9999999999999907
    vertex 148.29999999999998 3.40000000000001 27.499999999999996
  endloop
endfacet
facet normal 0.0 -1.0 0.0
  outer loop
    vertex 123.0641123126996 3.400000000000007 6.889582069482902
    vertex 148.29999999999998 3.40000000000001 27.499999999999996
    vertex 124.32187329392778 3.400000000000007 8.55677478452792
  endloop
endfacet
facet normal 0.0 -1.0 0.0
  outer loop
    vertex 124.32187329392778 3.400000000000007 8.55677478452792
    vertex 148.29999999999998 3.40000000000001 27.499999999999996
    vertex 125.10527588248493 3.400000000000007 10.492691781519582
  endloop
endfacet
facet normal 0.0 -1.0 0.0
  outer loop
    vertex 125.10527588248493 3.400000000000007 10.492691781519582
    vertex 148.29999999999998 3.40000000000001 27.499999999999996
    vertex 125.36093248659488 3.400000000000007 12.565403516367008
  endloop
endfacet
facet normal 0.0 -1.0 0.0
  outer loop
    vertex 125.36093248659488 3.400000000000007 12.565403516367008
    vertex 148.29999999999998 3.40000000000001 27.499999999999996
    vertex 125.07142053118 3.400000000000007 14.633658109658441
  endloop
endfacet
facet normal 0.0 -1.0 0.0
  outer loop
    vertex 125.07142053118 3.400000000000007 14.633658109658441
    vertex 148.29999999999998 3.40000000000001 27.499999999999996
    vertex 124.25646977756077 3.400000000000007 16.55650742881341
  endloop
endfacet
facet normal 0.0 -1.0 0.0
  outer loop
    vertex 124.25646977756077 3.400000000000007 16.55650742881341
    vertex 148.29999999999998 3.40000000000001 27.499999999999996
    vertex 122.97161777282645 3.400000000000007 18.20291247039022
  endloop
endfacet
facet normal 0.0 -1.0 0.0
  outer loop
    vertex 122.97161777282645 3.400000000000007 18.20291247039022
    vertex 148.29999999999998 3.40000000000001 27.499999999999996
    vertex 121.30442505778144 3.400000000000007 19.460673451618394
  endloop
endfacet
facet normal 0.0 -1.0 0.0
  outer loop
    vertex 121.30442505778144 3.400000000000007 19.460673451618394
    vertex 148.29999999999998 3.40000000000001 27.499999999999996
    vertex 119.36850806078978 3.400000000000007 20.24407604017554
  endloop
endfacet
facet normal 0.0 -1.0 0.0
  outer loop
    vertex 119.36850806078978 3.400000000000007 20.24407604017554
    vertex 148.29999999999998 3.40000000000001 27.499999999999996
    vertex 117.29579632594236 3.400000000000007 20.49973264428547
  endloop
endfacet
facet normal 0.0 -1.0 0.0
  outer loop
    vertex 8.500000000000002 3.40000000000001 1.9999999999999907
    vertex 23.5 3.40000000000001 7.499999999999995
    vertex 8.500000000000002 3.40000000000001 27.499999999999996
  endloop
endfacet
facet normal 0.0 -1.0 0.0
  outer loop
    vertex 23.5 3.40000000000001 7.499999999999995
    vertex 8.500000000000002 3.40000000000001 1.9999999999999907
    vertex 117.42660335867643 3.400000000000007 4.500267355714505
  endloop
endfacet
facet normal 0.0 -1.0 0.0
  outer loop
    vertex 23.5 3.40000000000001 7.499999999999995
    vertex 117.42660335867643 3.400000000000007 4.500267355714505
    vertex 115.35389162382899 3.400000000000007 4.755923959824437
  endloop
endfacet
facet normal 0.0 -1.0 0.0
  outer loop
    vertex 23.5 3.40000000000001 7.499999999999995
    vertex 115.35389162382899 3.400000000000007 4.755923959824437
    vertex 113.41797462683732 3.400000000000007 5.539326548381578
  endloop
endfacet
facet normal 0.0 -1.0 0.0
  outer loop
    vertex 23.5 3.40000000000001 7.499999999999995
    vertex 113.41797462683732 3.400000000000007 5.539326548381578
    vertex 111.75078191179232 3.400000000000007 6.797087529609755
  endloop
endfacet
facet normal 0.0 -1.0 0.0
  outer loop
    vertex 23.5 3.40000000000001 7.499999999999995
    vertex 111.75078191179232 3.400000000000007 6.797087529609755
    vertex 41.5 3.400000000000007 7.499999999999995
  endloop
endfacet
facet normal 0.0 -1.0 0.0
  outer loop
    vertex 8.500000000000002 3.40000000000001 27.499999999999996
    vertex 23.5 3.40000000000001 7.499999999999995
    vertex 23.5 3.40000000000001 18.499999999999993
  endloop
endfacet
facet normal 0.0 -1.0 0.0
  outer loop
    vertex 8.500000000000002 3.40000000000001 27.499999999999996
    vertex 23.5 3.40000000000001 18.499999999999993
    vertex 113.30469241349597 3.400000000000007 19.395269935251367
  endloop
endfacet
facet normal 0.0 -1.0 0.0
  outer loop
    vertex 8.500000000000002 3.40000000000001 27.499999999999996
    vertex 113.30469241349597 3.400000000000007 19.395269935251367
    vertex 115.22754173265092 3.400000000000007 20.210220688870614
  endloop
endfacet
facet normal 0.0 -1.0 0.0
  outer loop
    vertex 8.500000000000002 3.40000000000001 27.499999999999996
    vertex 115.22754173265092 3.400000000000007 20.210220688870614
    vertex 117.29579632594236 3.400000000000007 20.49973264428547
  endloop
endfacet
facet normal 0.0 -1.0 0.0
  outer loop
    vertex 8.500000000000002 3.40000000000001 27.499999999999996
    vertex 117.29579632594236 3.400000000000007 20.49973264428547
    vertex 148.29999999999998 3.40000000000001 27.499999999999996
  endloop
endfacet
facet normal 0.3751175220240565 0.0 0.9269772622187297
  outer loop
    vertex 115.35389162382899 3.400000000000007 4.755923959824437
    vertex 113.41797462683732 4.9000000000000075 5.53932654838158
    vertex 113.41797462683732 3.400000000000007 5.539326548381578
  endloop
endfacet
facet normal 0.3751175220240565 0.0 0.9269772622187297
  outer loop
    vertex 113.41797462683732 4.9000000000000075 5.53932654838158
    vertex 115.35389162382899 3.400000000000007 4.755923959824437
    vertex 115.35389162382899 4.9000000000000075 4.755923959824436
  endloop
endfacet
facet normal 0.9903446188239976 3.275349372903478e-16 0.1386273276318593
  outer loop
    vertex 109.65097915343875 4.9000000000000075 10.366341890341515
    vertex 109.36146719802392 3.400000000000007 12.434596483632955
    vertex 109.65097915343875 3.400000000000007 10.366341890341518
  endloop
endfacet
facet normal 0.9903446188239976 3.275349372903478e-16 0.1386273276318593
  outer loop
    vertex 109.36146719802392 3.400000000000007 12.434596483632955
    vertex 109.65097915343875 4.9000000000000075 10.366341890341515
    vertex 109.36146719802392 4.9000000000000075 12.434596483632951
  endloop
endfacet
facet normal 0.0 1.0 0.0
  outer loop
    vertex 8.500000000000002 4.9000000000000075 1.9999999999999907
    vertex 23.5 4.90000000000001 7.499999999999995
    vertex 148.29999999999998 4.9000000000000075 1.9999999999999907
  endloop
endfacet
facet normal 0.0 1.0 0.0
  outer loop
    vertex 23.5 4.90000000000001 7.499999999999995
    vertex 8.500000000000002 4.9000000000000075 1.9999999999999907
    vertex 8.500000000000002 4.9000000000000075 27.499999999999996
  endloop
endfacet
facet normal 0.0 1.0 0.0
  outer loop
    vertex 148.29999999999998 4.9000000000000075 1.9999999999999907
    vertex 23.5 4.90000000000001 7.499999999999995
    vertex 117.42660335867643 4.9000000000000075 4.500267355714505
  endloop
endfacet
facet normal 0.0 1.0 0.0
  outer loop
    vertex 117.42660335867643 4.9000000000000075 4.500267355714505
    vertex 23.5 4.90000000000001 7.499999999999995
    vertex 115.35389162382899 4.9000000000000075 4.755923959824436
  endloop
endfacet
facet normal 0.0 1.0 0.0
  outer loop
    vertex 115.35389162382899 4.9000000000000075 4.755923959824436
    vertex 23.5 4.90000000000001 7.499999999999995
    vertex 113.41797462683732 4.9000000000000075 5.53932654838158
  endloop
endfacet
facet normal 0.0 1.0 0.0
  outer loop
    vertex 113.41797462683732 4.9000000000000075 5.53932654838158
    vertex 23.5 4.90000000000001 7.499999999999995
    vertex 111.75078191179232 4.9000000000000075 6.797087529609755
  endloop
endfacet
facet normal 0.0 1.0 0.0
  outer loop
    vertex 23.5 4.90000000000001 7.499999999999995
    vertex 8.500000000000002 4.9000000000000075 27.499999999999996
    vertex 23.5 4.90000000000001 18.499999999999993
  endloop
endfacet
facet normal 0.0 1.0 0.0
  outer loop
    vertex 23.5 4.90000000000001 18.499999999999993
    vertex 8.500000000000002 4.9000000000000075 27.499999999999996
    vertex 41.5 4.900000000000008 18.499999999999993
  endloop
endfacet
facet normal 0.0 1.0 0.0
  outer loop
    vertex 41.5 4.900000000000008 18.499999999999993
    vertex 8.500000000000002 4.9000000000000075 27.499999999999996
    vertex 113.30469241349597 4.9000000000000075 19.39526993525137
  endloop
endfacet
facet normal 0.0 1.0 0.0
  outer loop
    vertex 113.30469241349597 4.9000000000000075 19.39526993525137
    vertex 8.500000000000002 4.9000000000000075 27.499999999999996
    vertex 115.22754173265092 4.9000000000000075 20.210220688870617
  endloop
endfacet
facet normal 0.0 1.0 0.0
  outer loop
    vertex 115.22754173265092 4.9000000000000075 20.210220688870617
    vertex 8.500000000000002 4.9000000000000075 27.499999999999996
    vertex 117.29579632594236 4.9000000000000075 20.49973264428547
  endloop
endfacet
facet normal 0.0 1.0 0.0
  outer loop
    vertex 148.29999999999998 4.9000000000000075 1.9999999999999907
    vertex 123.0641123126996 4.9000000000000075 6.8895820694829135
    vertex 148.29999999999998 4.9000000000000075 27.499999999999996
  endloop
endfacet
facet normal 0.0 1.0 0.0
  outer loop
    vertex 123.0641123126996 4.9000000000000075 6.8895820694829135
    vertex 148.29999999999998 4.9000000000000075 1.9999999999999907
    vertex 121.41770727112282 4.9000000000000075 5.604730064748618
  endloop
endfacet
facet normal 0.0 1.0 0.0
  outer loop
    vertex 121.41770727112282 4.9000000000000075 5.604730064748618
    vertex 148.29999999999998 4.9000000000000075 1.9999999999999907
    vertex 119.49485795196784 4.9000000000000075 4.789779311129363
  endloop
endfacet
facet normal 0.0 1.0 0.0
  outer loop
    vertex 119.49485795196784 4.9000000000000075 4.789779311129363
    vertex 148.29999999999998 4.9000000000000075 1.9999999999999907
    vertex 117.42660335867643 4.9000000000000075 4.500267355714505
  endloop
endfacet
facet normal 0.0 1.0 0.0
  outer loop
    vertex 148.29999999999998 4.9000000000000075 27.499999999999996
    vertex 123.0641123126996 4.9000000000000075 6.8895820694829135
    vertex 124.32187329392778 4.9000000000000075 8.556774784527937
  endloop
endfacet
facet normal 0.0 1.0 0.0
  outer loop
    vertex 148.29999999999998 4.9000000000000075 27.499999999999996
    vertex 124.32187329392778 4.9000000000000075 8.556774784527937
    vertex 125.10527588248493 4.9000000000000075 10.492691781519603
  endloop
endfacet
facet normal 0.0 1.0 0.0
  outer loop
    vertex 148.29999999999998 4.9000000000000075 27.499999999999996
    vertex 125.10527588248493 4.9000000000000075 10.492691781519603
    vertex 125.36093248659485 4.9000000000000075 12.565403516367029
  endloop
endfacet
facet normal 0.0 1.0 0.0
  outer loop
    vertex 148.29999999999998 4.9000000000000075 27.499999999999996
    vertex 125.36093248659485 4.9000000000000075 12.565403516367029
    vertex 125.07142053118 4.9000000000000075 14.633658109658462
  endloop
endfacet
facet normal 0.0 1.0 0.0
  outer loop
    vertex 148.29999999999998 4.9000000000000075 27.499999999999996
    vertex 125.07142053118 4.9000000000000075 14.633658109658462
    vertex 124.25646977756077 4.9000000000000075 16.556507428813415
  endloop
endfacet
facet normal 0.0 1.0 0.0
  outer loop
    vertex 148.29999999999998 4.9000000000000075 27.499999999999996
    vertex 124.25646977756077 4.9000000000000075 16.556507428813415
    vertex 122.97161777282645 4.9000000000000075 18.20291247039022
  endloop
endfacet
facet normal 0.0 1.0 0.0
  outer loop
    vertex 148.29999999999998 4.9000000000000075 27.499999999999996
    vertex 122.97161777282645 4.9000000000000075 18.20291247039022
    vertex 121.30442505778144 4.9000000000000075 19.460673451618394
  endloop
endfacet
facet normal 0.0 1.0 0.0
  outer loop
    vertex 148.29999999999998 4.9000000000000075 27.499999999999996
    vertex 121.30442505778144 4.9000000000000075 19.460673451618394
    vertex 119.3685080607898 4.9000000000000075 20.24407604017554
  endloop
endfacet
facet normal 0.0 1.0 0.0
  outer loop
    vertex 148.29999999999998 4.9000000000000075 27.499999999999996
    vertex 119.3685080607898 4.9000000000000075 20.24407604017554
    vertex 117.29579632594236 4.9000000000000075 20.49973264428547
  endloop
endfacet
facet normal 0.0 1.0 0.0
  outer loop
    vertex 148.29999999999998 4.9000000000000075 27.499999999999996
    vertex 117.29579632594236 4.9000000000000075 20.49973264428547
    vertex 8.500000000000002 4.9000000000000075 27.499999999999996
  endloop
endfacet
facet normal 0.0 1.0 0.0
  outer loop
    vertex 111.75078191179232 4.9000000000000075 6.797087529609755
    vertex 41.5 4.9000000000000075 7.499999999999995
    vertex 110.465929907058 4.9000000000000075 8.443492571186562
  endloop
endfacet
facet normal 0.0 1.0 0.0
  outer loop
    vertex 41.5 4.9000000000000075 7.499999999999995
    vertex 111.75078191179232 4.9000000000000075 6.797087529609755
    vertex 23.5 4.90000000000001 7.499999999999995
  endloop
endfacet
facet normal 0.0 1.0 0.0
  outer loop
    vertex 110.465929907058 4.9000000000000075 8.443492571186562
    vertex 41.5 4.9000000000000075 7.499999999999995
    vertex 41.5 4.900000000000008 18.499999999999993
  endloop
endfacet
facet normal 0.0 1.0 0.0
  outer loop
    vertex 110.465929907058 4.9000000000000075 8.443492571186562
    vertex 41.5 4.900000000000008 18.499999999999993
    vertex 109.65097915343875 4.9000000000000075 10.366341890341515
  endloop
endfacet
facet normal 0.0 1.0 0.0
  outer loop
    vertex 109.65097915343875 4.9000000000000075 10.366341890341515
    vertex 41.5 4.900000000000008 18.499999999999993
    vertex 109.36146719802392 4.9000000000000075 12.434596483632951
  endloop
endfacet
facet normal 0.0 1.0 0.0
  outer loop
    vertex 109.36146719802392 4.9000000000000075 12.434596483632951
    vertex 41.5 4.900000000000008 18.499999999999993
    vertex 109.61712380213383 4.9000000000000075 14.507308218480379
  endloop
endfacet
facet normal 0.0 1.0 0.0
  outer loop
    vertex 109.61712380213383 4.9000000000000075 14.507308218480379
    vertex 41.5 4.900000000000008 18.499999999999993
    vertex 110.40052639069098 4.9000000000000075 16.443225215472044
  endloop
endfacet
facet normal 0.0 1.0 0.0
  outer loop
    vertex 110.40052639069098 4.9000000000000075 16.443225215472044
    vertex 41.5 4.900000000000008 18.499999999999993
    vertex 111.65828737191916 4.9000000000000075 18.110417930517066
  endloop
endfacet
facet normal 0.0 1.0 0.0
  outer loop
    vertex 111.65828737191916 4.9000000000000075 18.110417930517066
    vertex 41.5 4.900000000000008 18.499999999999993
    vertex 113.30469241349597 4.9000000000000075 19.39526993525137
  endloop
endfacet
endsolid Air quality SDS011 box 01
